<?xml version="1.0" standalone="no"?>
<!DOCTYPE svg PUBLIC "-//W3C//DTD SVG 20010904//EN"
 "http://www.w3.org/TR/2001/REC-SVG-20010904/DTD/svg10.dtd">
<svg version="1.0" xmlns="http://www.w3.org/2000/svg"
 width="922.000000pt" height="922.000000pt" viewBox="0 0 922.000000 922.000000"
 preserveAspectRatio="xMidYMid meet">
<metadata>
Created by potrace 1.14, written by Peter Selinger 2001-2017
</metadata>
<g transform="translate(0.000000,922.000000) scale(0.100000,-0.100000)"
fill="#000000" stroke="none">
<path d="M3855 9168 c-3 -18 -7 -46 -8 -61 -1 -15 -8 -32 -16 -36 -7 -5 -14
-29 -15 -57 -3 -58 1 -69 19 -54 10 8 15 8 21 -1 4 -7 3 -9 -3 -6 -5 4 -20 -3
-32 -14 -27 -25 -88 -37 -88 -18 0 8 -4 32 -7 54 -4 22 -9 47 -10 55 -4 21
-47 42 -62 30 -6 -6 -13 -7 -16 -5 -3 3 -17 0 -32 -6 -24 -11 -32 -27 -26 -54
2 -10 8 -53 14 -93 4 -28 -8 -36 -54 -34 -27 2 -42 -4 -59 -22 -20 -22 -71
-38 -121 -40 -9 -1 -27 -8 -41 -17 -13 -9 -39 -20 -57 -24 -26 -5 -34 -13 -39
-36 -3 -16 -8 -29 -12 -30 -49 -5 -68 -12 -99 -36 -20 -15 -47 -39 -58 -53
-12 -14 -34 -38 -48 -55 -41 -46 -46 -53 -46 -64 0 -5 -4 -11 -9 -13 -19 -7
-100 -140 -104 -172 -4 -31 -1 -36 35 -57 22 -13 57 -34 77 -47 20 -12 51 -30
69 -39 17 -9 32 -20 32 -25 0 -4 9 -8 20 -8 11 0 20 -4 20 -8 0 -5 12 -15 28
-23 23 -12 67 -38 178 -106 105 -65 137 -83 145 -83 5 0 9 -4 9 -8 0 -9 40
-30 54 -28 4 0 14 -17 21 -39 18 -57 56 -193 60 -213 2 -9 4 -18 5 -19 2 -2 3
-6 4 -10 15 -60 24 -102 32 -143 2 -14 7 -32 10 -40 5 -14 29 -133 39 -195 3
-16 10 -55 15 -85 6 -30 12 -75 15 -100 2 -25 7 -63 10 -85 3 -22 8 -71 11
-110 3 -38 7 -88 9 -110 7 -85 3 -510 -5 -510 -1 0 -3 -18 -4 -40 -1 -22 -4
-44 -7 -50 -3 -5 -5 -31 -5 -57 1 -25 -2 -44 -6 -41 -5 2 -9 -11 -10 -29 -1
-31 -3 -46 -8 -58 -1 -3 -3 -12 -5 -20 -2 -8 -14 -64 -29 -125 -14 -60 -28
-126 -31 -145 -3 -19 -10 -51 -15 -70 -5 -20 -12 -51 -14 -71 -3 -19 -7 -46
-10 -59 -4 -14 -9 -41 -11 -60 -3 -19 -7 -45 -9 -58 -3 -12 -10 -54 -16 -92
-6 -37 -13 -83 -15 -102 -2 -18 -7 -55 -11 -83 -3 -27 -7 -63 -9 -80 -2 -16
-4 -30 -5 -30 -1 0 -4 -20 -6 -45 -2 -25 -6 -63 -8 -85 -13 -133 -28 -396 -26
-440 1 -16 2 -37 1 -45 -2 -23 -3 -95 -2 -95 1 0 4 -34 6 -75 2 -41 7 -86 9
-100 3 -14 10 -52 15 -85 77 -458 284 -841 592 -1096 80 -66 111 -88 158 -114
20 -11 38 -22 41 -26 3 -3 22 -13 42 -22 30 -14 38 -24 44 -55 3 -20 17 -48
30 -62 30 -33 42 -68 38 -108 -4 -36 -42 -110 -74 -144 -11 -12 -22 -30 -26
-40 -3 -10 -9 -18 -13 -18 -12 0 -41 -92 -45 -144 -8 -103 30 -195 123 -296
56 -61 67 -94 57 -173 -17 -125 -101 -240 -224 -305 -63 -34 -202 -85 -202
-75 0 3 -7 0 -15 -7 -8 -7 -15 -10 -15 -7 0 3 -15 1 -32 -4 -18 -6 -44 -12
-58 -14 -14 -3 -44 -8 -67 -13 -28 -6 -46 -6 -54 2 -9 8 -10 8 -5 -2 5 -8 -2
-12 -23 -13 -35 -2 -70 -6 -73 -8 -2 -2 -15 -4 -31 -6 -19 -3 -25 0 -20 8 4 7
0 6 -10 -2 -9 -7 -24 -11 -32 -7 -8 3 -15 2 -15 -2 0 -4 -11 -7 -25 -7 -14 0
-25 4 -25 9 0 5 -6 4 -12 -1 -7 -6 -29 -13 -49 -17 -35 -6 -68 -31 -67 -51 0
-5 4 -17 9 -26 5 -10 3 -21 -4 -29 -8 -10 -6 -10 7 0 15 12 20 12 23 3 3 -7
13 -13 23 -13 10 0 22 -4 25 -10 3 -5 1 -10 -5 -10 -6 0 -8 -5 -5 -10 5 -8 11
-7 21 1 15 12 19 3 14 -30 -1 -12 1 -13 14 -2 8 7 19 10 25 7 5 -3 11 -1 13 6
2 6 14 12 25 13 14 1 19 -3 16 -12 -4 -10 -9 -11 -19 -2 -8 7 -14 7 -14 1 0
-5 6 -15 14 -21 12 -10 17 -8 26 8 6 12 16 21 23 20 9 0 9 -2 0 -6 -21 -8 -15
-18 12 -19 22 -2 24 0 13 15 -7 9 -1 6 13 -7 14 -12 28 -19 32 -16 4 4 -1 14
-11 22 -10 8 -7 7 8 -2 43 -28 50 -29 73 -10 18 16 20 16 8 2 -15 -21 -2 -24
19 -5 12 10 12 9 1 -5 -15 -21 -2 -24 19 -5 11 9 11 8 0 -7 -14 -17 -13 -18 7
-12 12 4 24 2 28 -4 3 -6 11 -8 16 -5 5 4 17 1 26 -4 10 -6 12 -11 6 -11 -7 0
-13 -5 -13 -12 0 -6 3 -8 7 -5 3 4 12 2 20 -4 11 -9 13 -7 10 10 -3 21 -38 53
-54 50 -19 -3 -33 2 -33 12 0 8 4 8 13 0 10 -8 17 -7 25 1 7 7 12 8 12 2 0 -5
13 -10 30 -10 20 -1 27 2 23 10 -3 6 3 3 14 -7 11 -9 23 -14 26 -10 4 3 7 2 7
-4 0 -6 -9 -13 -20 -16 -20 -5 -23 -26 -6 -38 4 -4 3 -10 -3 -13 -6 -4 -11 -2
-11 5 0 7 -4 8 -12 2 -12 -8 -30 -10 -43 -3 -15 7 -32 5 -52 -7 -29 -17 -42
-17 -19 0 16 12 16 14 2 14 -9 0 -16 -5 -16 -11 -1 -6 -7 0 -14 13 -8 15 -16
20 -20 12 -4 -6 -2 -11 5 -11 7 0 9 -3 6 -6 -4 -4 -12 -2 -19 3 -7 5 -26 9
-41 8 -15 -1 -30 2 -33 7 -3 4 -10 6 -15 3 -5 -3 -6 2 -3 12 5 14 4 15 -4 4
-5 -7 -15 -10 -21 -6 -9 5 -9 10 0 21 7 9 8 14 1 14 -6 0 -14 -5 -17 -10 -4
-6 -11 -7 -17 -4 -6 4 -8 -1 -6 -12 2 -12 11 -18 23 -16 16 3 18 1 8 -9 -7 -7
-13 -16 -13 -19 0 -13 49 -29 72 -24 43 10 61 9 65 -3 3 -8 -4 -10 -21 -7 -14
2 -26 0 -26 -5 0 -5 8 -8 18 -6 9 1 23 -2 30 -8 9 -7 17 -6 25 2 9 10 8 15 -7
27 -14 10 -16 14 -5 14 22 -1 57 -31 42 -37 -15 -5 -17 -23 -4 -23 10 0 27 39
23 53 -1 4 2 7 6 7 17 0 21 -13 11 -31 -6 -13 -6 -19 1 -19 5 0 10 7 10 15 0
19 14 19 30 0 7 -9 20 -13 28 -10 10 4 12 0 8 -11 -3 -8 -6 -20 -6 -25 0 -6
-5 -7 -12 -3 -7 4 -8 3 -4 -5 9 -14 26 -5 26 15 0 8 5 12 10 9 6 -4 7 -11 4
-17 -4 -6 -2 -8 4 -4 6 3 15 -2 21 -11 6 -10 11 -13 11 -7 0 6 -9 19 -20 29
-11 10 -20 23 -20 28 0 6 10 2 23 -9 39 -35 61 -50 53 -36 -4 6 -4 12 1 13 4
0 16 2 26 4 14 3 17 -1 13 -13 -5 -15 -4 -15 8 0 15 20 31 25 20 6 -4 -6 4 -3
18 8 14 10 24 22 22 25 -2 4 4 13 13 20 14 12 15 11 10 -6 -4 -11 -2 -27 3
-35 8 -13 10 -12 10 3 0 10 4 16 9 12 5 -3 12 -1 16 5 3 5 11 10 17 10 6 0 6
-6 -2 -15 -10 -12 -10 -19 -2 -27 17 -17 15 -28 -5 -22 -15 5 -16 4 -3 -5 20
-14 39 4 22 21 -7 7 -12 17 -12 22 1 6 9 1 19 -11 12 -15 22 -18 32 -12 12 7
11 9 -2 9 -28 0 -42 25 -23 41 14 11 15 10 12 -7 -2 -11 2 -18 9 -17 7 2 24
-14 38 -35 26 -40 45 -45 80 -23 13 8 14 11 3 7 -9 -2 -18 -2 -21 1 -8 7 25
43 35 37 4 -3 8 0 8 5 0 6 -5 11 -12 11 -6 0 -8 3 -4 7 12 13 67 11 63 -1 -2
-6 -11 -10 -21 -8 -26 5 -18 -22 14 -46 16 -13 30 -19 30 -14 0 5 -11 15 -25
22 -14 7 -25 17 -25 22 0 5 8 4 19 -1 10 -6 21 -7 25 -4 3 3 6 1 6 -6 0 -9 6
-8 21 3 12 8 27 12 34 10 7 -3 16 -1 20 5 3 6 11 11 17 11 7 0 7 -4 -1 -13 -8
-11 -5 -16 15 -25 14 -7 22 -17 19 -22 -3 -6 1 -13 9 -16 9 -3 13 -10 10 -15
-3 -5 2 -12 12 -16 16 -6 15 -7 -2 -20 -10 -7 -13 -13 -7 -13 6 0 16 7 23 15
10 12 9 16 -4 21 -9 3 -14 10 -11 14 3 5 -3 13 -12 19 -10 6 -14 11 -9 11 5 0
3 7 -4 15 -6 8 -8 20 -4 27 6 10 4 10 -9 0 -14 -12 -16 -11 -14 6 1 20 37 28
37 9 0 -5 10 -5 22 -1 20 6 21 5 9 -10 -11 -13 -11 -16 0 -17 8 -1 18 -1 22 0
14 3 3 -32 -12 -37 -8 -3 -11 0 -8 5 3 5 -3 17 -14 26 -10 9 -19 12 -19 7 0
-6 7 -13 15 -16 8 -4 12 -10 9 -15 -3 -5 2 -12 10 -15 9 -3 13 -10 10 -15 -3
-5 3 -6 12 -2 12 4 14 8 6 11 -10 3 -10 7 -1 18 13 15 4 48 -10 39 -6 -3 -9 4
-8 15 2 27 15 25 29 -5 6 -14 16 -25 21 -25 5 0 4 -7 -3 -15 -7 -9 -11 -17 -9
-20 3 -2 10 4 17 15 9 15 9 22 -3 34 -17 17 -20 30 -5 21 6 -3 10 -1 10 5 0 6
5 8 10 5 6 -4 8 -10 5 -15 -3 -5 2 -16 11 -24 8 -9 12 -16 7 -16 -4 -1 2 -9
14 -19 12 -10 20 -20 18 -23 -2 -2 6 -5 17 -5 20 -2 19 0 -6 16 -15 10 -26 21
-24 24 2 4 -4 15 -12 25 -22 27 -22 41 0 39 11 -1 19 -6 19 -12 -1 -5 -1 -17
0 -25 1 -13 2 -13 11 0 7 11 10 11 10 2 0 -10 5 -10 21 2 12 8 27 12 34 10 7
-3 16 -1 20 5 3 6 11 11 17 11 7 0 6 -6 -2 -15 -9 -10 -9 -15 -1 -15 10 0 15
13 13 32 -2 11 27 18 33 8 4 -6 1 -10 -5 -10 -7 0 -6 -8 4 -21 8 -12 13 -26
12 -33 -2 -6 -1 -8 1 -3 7 12 23 8 21 -5 -3 -14 40 -20 48 -6 3 5 0 15 -6 23
-6 8 -9 20 -5 27 4 7 -2 2 -12 -10 -18 -22 -21 -23 -36 -7 -22 22 -21 30 4 32
17 2 18 -1 9 -13 -9 -10 -9 -14 -1 -14 10 0 15 13 12 32 0 4 8 6 19 5 11 -1
20 -5 20 -10 0 -4 4 -5 10 -2 5 3 10 2 10 -4 0 -5 -6 -11 -12 -14 -7 -2 -10
-8 -6 -12 4 -4 16 3 27 16 24 29 28 13 5 -20 -13 -18 -14 -25 -4 -34 10 -9 12
-8 7 5 -3 10 -2 20 3 23 5 3 10 0 13 -7 2 -7 2 -2 0 12 -3 19 -2 22 8 13 9 -9
16 -7 30 10 10 13 21 18 26 13 4 -5 2 -11 -4 -13 -7 -3 -13 -9 -13 -15 0 -6 6
-5 15 2 9 7 14 19 11 27 -8 21 13 15 39 -11 16 -16 27 -20 34 -13 7 7 15 6 26
-3 12 -10 15 -10 16 1 0 8 5 4 11 -9 6 -12 15 -22 21 -22 5 0 4 6 -2 14 -6 7
-9 20 -6 28 3 8 -1 21 -9 28 -21 16 -11 30 20 30 15 0 23 4 19 10 -4 6 -12 7
-18 3 -7 -4 -4 5 6 20 19 30 23 47 6 30 -6 -6 -19 -9 -28 -5 -13 5 -14 3 -4
-9 14 -17 1 -45 -16 -35 -7 4 -9 1 -5 -8 4 -11 -1 -14 -23 -11 -15 2 -30 4
-33 5 -3 2 -9 2 -13 1 -5 -1 -6 3 -2 8 7 12 -35 5 -48 -8 -5 -5 -17 -7 -26 -5
-9 3 -5 -2 9 -11 18 -12 19 -14 5 -9 -11 3 -25 7 -32 7 -7 0 -10 4 -7 9 3 4
-3 5 -13 2 -14 -4 -15 -3 -4 4 9 7 10 12 2 16 -6 4 -11 3 -11 -3 0 -5 -8 -8
-18 -6 -11 2 -19 -3 -19 -11 0 -8 5 -14 10 -14 6 0 8 -3 4 -6 -3 -3 -12 -2
-19 2 -13 9 -20 10 -83 18 -28 4 -35 2 -25 -4 13 -8 12 -10 -4 -10 -13 0 -16
5 -12 17 4 10 4 14 0 11 -4 -4 -16 -3 -27 3 -15 9 -18 8 -12 -2 6 -8 4 -10 -6
-4 -8 5 -6 -1 4 -12 18 -21 18 -22 -5 -34 -20 -11 -21 -10 -11 2 13 16 0 49
-14 36 -4 -5 -1 -12 7 -17 9 -6 3 -8 -20 -5 -19 2 -37 4 -39 4 -2 1 2 7 8 14
6 8 8 17 4 20 -9 10 -25 9 -19 -1 7 -12 -12 -38 -21 -29 -4 5 -1 12 6 16 8 6
9 11 3 15 -6 3 -13 -3 -17 -14 -3 -11 -16 -25 -28 -31 -12 -7 -19 -8 -15 -4 9
9 -9 45 -22 45 -5 0 -16 -12 -23 -26 -9 -17 -17 -23 -21 -15 -4 6 -2 11 3 11
6 0 11 5 11 11 0 6 -5 7 -12 2 -13 -8 -33 -13 -55 -15 -7 -1 -13 -6 -13 -11 0
-5 -7 -4 -15 3 -11 9 -12 16 -5 25 9 11 4 25 -10 25 -10 0 -9 -33 2 -46 5 -8
3 -14 -7 -18 -9 -3 -13 -2 -10 4 3 6 2 10 -3 10 -5 0 -9 7 -9 15 0 8 4 15 9
15 5 0 6 5 2 11 -3 6 -9 7 -13 3 -3 -5 -13 -11 -21 -12 -46 -11 -59 -11 -70 3
-13 15 -35 21 -26 7 2 -4 0 -14 -6 -22 -8 -13 -9 -13 -5 0 6 20 -18 56 -28 41
-3 -6 -1 -11 5 -11 6 0 8 -5 4 -11 -4 -8 -11 -4 -18 9 l-11 22 -13 -21 c-11
-17 -11 -20 4 -17 9 2 19 -4 21 -12 4 -13 3 -13 -6 0 -6 8 -11 10 -11 4 0 -6
-7 -11 -15 -11 -8 0 -11 5 -8 11 4 6 -2 4 -13 -4 -10 -8 -16 -10 -12 -6 4 5 3
15 -3 23 -9 9 -8 13 0 13 6 0 11 -5 11 -11 0 -5 4 -8 10 -4 5 3 7 12 4 20 -5
11 -11 12 -25 4 -11 -5 -17 -14 -14 -19 3 -5 1 -11 -4 -14 -5 -3 -12 2 -16 12
-6 15 -8 14 -21 -8 -9 -14 -13 -18 -11 -9 4 12 -1 15 -21 14 -15 -1 -33 3 -41
9 -12 9 -13 8 -6 -4 4 -8 5 -12 0 -8 -4 4 -15 2 -23 -5 -13 -10 -15 -9 -8 3 4
8 0 6 -8 -4 -9 -11 -16 -15 -16 -10 0 6 5 15 12 22 9 9 6 11 -11 7 -15 -3 -19
0 -14 8 4 7 0 6 -10 -2 -15 -12 -21 -9 -18 12 0 4 -3 7 -9 7 -5 0 -10 -6 -10
-12 0 -9 -4 -8 -10 2 -6 10 -10 11 -10 3 0 -7 -4 -13 -8 -13 -4 0 -8 11 -8 25
0 28 11 33 20 9 3 -8 11 -12 16 -9 6 4 16 2 23 -4 8 -6 18 -6 27 -1 8 6 12 10
8 11 -5 1 -12 3 -18 4 -5 1 -14 3 -20 4 -5 0 -7 9 -4 19 5 16 5 16 -9 -1 -14
-17 -15 -17 -13 7 1 19 4 22 17 15 9 -4 20 -5 24 -1 4 4 4 -4 1 -18 -7 -25 -7
-25 11 -5 37 40 67 25 57 -29 -4 -26 -3 -28 12 -15 9 8 20 13 23 11 3 -2 7 1
9 7 2 7 -3 8 -14 4 -13 -5 -16 -3 -12 9 4 9 2 20 -3 25 -6 6 -4 10 5 10 8 0
14 -5 13 -10 -1 -5 6 -14 16 -20 20 -14 54 3 49 24 -2 10 0 10 11 0 11 -9 16
-9 19 0 2 6 9 0 16 -15 7 -15 8 -26 2 -26 -6 0 -10 7 -10 16 0 8 -5 12 -11 9
-6 -4 -8 -13 -5 -20 2 -7 -1 -18 -7 -24 -17 -17 -1 -13 32 7 22 13 27 22 20
34 -6 11 -5 18 5 21 10 4 12 -1 9 -16 -4 -21 -4 -21 17 3 15 17 20 19 16 7 -7
-21 10 -23 18 -1 4 9 11 12 18 7 7 -4 20 -8 28 -10 8 -1 16 -7 18 -13 2 -5 8
-7 13 -4 6 3 5 12 -3 22 -11 15 -11 15 3 4 9 -7 24 -10 32 -6 13 5 16 -1 13
-34 -2 -29 0 -39 10 -35 6 2 11 15 9 29 -1 14 0 22 3 20 2 -3 11 2 20 10 18
18 34 6 37 -28 1 -12 6 -23 11 -25 13 -4 16 35 3 42 -12 8 -12 25 1 25 6 0 9
-3 9 -8 -4 -22 3 -24 15 -3 8 15 16 20 20 12 4 -6 2 -11 -3 -11 -6 0 -11 -4
-11 -9 0 -6 9 -9 20 -8 12 1 18 7 16 14 -3 7 1 10 10 6 11 -4 12 -9 3 -19 -9
-11 -9 -14 0 -14 6 0 14 7 17 15 4 11 13 13 28 9 19 -6 20 -5 6 12 -14 18 -14
18 2 5 10 -7 16 -17 13 -21 -3 -4 3 -14 12 -21 14 -12 15 -11 9 9 -6 19 3 30
17 20 2 -2 12 4 23 12 19 14 19 14 0 -8 -11 -12 -14 -22 -8 -22 6 0 18 10 26
22 9 12 16 17 16 11 0 -7 6 -11 13 -9 6 1 9 1 5 -1 -12 -7 -9 -33 3 -33 5 0 7
4 4 10 -4 6 1 7 11 3 10 -4 15 -2 11 3 -3 6 -2 16 2 23 6 9 14 6 30 -15 12
-15 24 -24 28 -21 3 4 -1 15 -10 25 -16 17 -16 19 1 17 9 0 23 -5 31 -9 8 -5
17 -3 22 5 6 9 9 10 9 2 0 -19 -20 -26 -35 -13 -9 7 -15 8 -15 2 0 -5 7 -16
16 -23 14 -11 19 -10 34 9 20 24 31 29 28 11 -2 -6 3 -14 11 -17 8 -2 11 0 8
5 -3 5 -2 15 2 22 7 10 9 9 14 -2 9 -23 -19 -43 -38 -27 -8 7 -15 8 -15 2 0
-5 7 -15 15 -22 11 -9 19 -7 41 15 21 21 29 24 38 14 8 -9 8 -10 -3 -4 -9 5
-12 3 -9 -5 7 -23 48 -18 67 7 11 12 22 23 26 23 4 0 2 -7 -5 -15 -8 -9 -9
-15 -2 -15 6 0 18 10 26 22 9 12 16 17 16 11 0 -6 -7 -16 -15 -23 -8 -7 -15
-18 -15 -24 1 -6 14 5 30 24 17 19 30 29 30 22 0 -7 -11 -22 -25 -34 -30 -26
-33 -45 -4 -24 12 8 29 12 38 8 13 -5 14 -3 4 9 -9 11 -8 18 3 33 8 12 14 15
14 7 0 -11 3 -11 18 0 14 11 15 11 5 -1 -7 -8 -13 -19 -13 -24 1 -6 10 0 22
14 l21 25 -8 -25 c-7 -24 -7 -24 11 -9 34 29 40 29 40 -1 0 -19 -4 -26 -13
-23 -8 3 -11 0 -8 -9 3 -7 14 -14 25 -14 15 0 18 6 14 33 -2 19 1 33 7 33 5 0
7 5 3 11 -4 8 -1 8 12 1 11 -5 33 -8 50 -7 29 1 31 -1 21 -17 -7 -10 -15 -18
-20 -18 -4 0 -6 -4 -3 -9 8 -13 39 -7 44 9 3 8 0 10 -7 5 -9 -5 -9 -2 0 13 7
11 20 19 28 17 9 -1 21 0 26 4 16 9 36 10 30 1 -3 -5 3 -14 14 -19 29 -16 39
-13 17 4 -26 20 -12 19 18 -1 16 -10 26 -12 31 -5 3 6 -1 11 -9 11 -8 0 -17 3
-19 8 -3 4 5 7 18 7 13 0 21 -3 19 -6 -1 -3 10 -6 26 -6 17 0 27 5 23 10 -3 6
-1 7 6 3 6 -4 19 -2 28 6 14 11 16 11 8 -1 -6 -11 -4 -13 7 -8 9 3 26 -2 39
-11 21 -14 22 -14 16 1 -3 9 -1 19 5 23 6 4 8 3 5 -3 -4 -6 0 -14 9 -17 24 -9
28 -7 15 8 -9 11 -7 13 11 12 13 -1 28 2 34 6 17 13 43 -1 41 -22 -1 -10 -5
-16 -11 -13 -5 4 -6 1 -1 -7 5 -8 4 -11 -3 -6 -6 3 -14 1 -18 -5 -4 -8 -9 -7
-15 2 -5 8 -9 9 -9 3 0 -13 -48 -13 -69 0 -10 7 -12 6 -6 -4 6 -9 4 -11 -6 -5
-11 7 -11 5 1 -10 8 -11 10 -16 3 -11 -9 5 -11 2 -7 -11 6 -16 4 -15 -10 2
-10 11 -14 13 -10 5 7 -13 6 -13 -11 0 -17 13 -18 13 -10 0 7 -12 6 -13 -6 -4
-8 6 -22 10 -31 9 -21 -4 -23 6 -6 23 9 9 9 12 1 12 -12 0 -29 -38 -24 -54 1
-5 -5 -4 -13 4 -13 10 -16 10 -16 -1 0 -8 -6 -5 -15 7 -12 15 -14 15 -9 2 4
-13 0 -16 -15 -15 -19 1 -19 2 -4 19 12 13 13 18 3 18 -7 0 -18 -8 -25 -17
-10 -14 -8 -20 14 -39 15 -14 20 -24 13 -24 -8 0 -23 10 -34 23 -11 12 -16 16
-13 8 5 -9 -1 -8 -19 4 -14 10 -27 15 -27 11 -1 -3 -2 -11 -3 -18 0 -6 -7 -13
-15 -16 -8 -3 -11 0 -8 6 4 5 -1 16 -10 23 -14 12 -16 12 -8 0 6 -10 4 -12 -5
-6 -9 6 -11 4 -5 -5 6 -9 4 -11 -5 -5 -10 6 -11 4 -4 -6 13 -21 15 -47 4 -54
-6 -3 -10 -12 -10 -18 1 -8 5 -6 13 3 7 9 18 15 25 14 6 -1 20 -2 30 -3 15 -1
15 -3 2 -12 -13 -9 -13 -10 2 -6 9 3 19 2 22 -4 2 -5 3 -4 2 3 -1 7 -12 18
-24 24 -16 8 -18 14 -10 22 14 14 63 -42 52 -60 -5 -10 -4 -10 6 -1 11 10 11
16 -3 31 -13 14 -14 21 -5 30 16 16 33 15 19 -1 -24 -30 26 -38 53 -8 13 14
29 18 71 16 30 -1 52 2 49 6 -2 4 0 10 6 14 5 3 10 1 10 -6 0 -7 3 -9 6 -6 4
4 1 13 -6 22 -11 13 -9 15 11 11 13 -3 26 -5 29 -5 3 -1 -2 -6 -10 -11 -9 -6
-10 -10 -3 -10 16 0 26 17 13 25 -5 3 -10 12 -10 18 1 7 9 2 19 -10 11 -13 22
-23 26 -23 4 0 2 7 -5 15 -8 9 -9 15 -2 15 6 0 14 -5 17 -10 4 -6 11 -8 16 -4
5 3 7 10 3 15 -9 16 29 6 44 -11 11 -13 11 -11 2 8 -6 12 -15 20 -21 17 -5 -4
-9 -2 -9 4 0 19 19 21 32 4 18 -24 39 -28 31 -5 -6 15 -5 16 12 2 11 -9 16
-10 11 -2 -8 14 19 12 44 -3 13 -7 13 -6 2 7 -7 9 -11 21 -10 28 2 7 -4 15
-12 17 -13 4 -13 3 0 -6 13 -10 13 -11 0 -12 -8 -1 -19 -3 -25 -3 -5 -1 -15
-5 -22 -9 -8 -5 -11 -1 -8 13 3 13 0 18 -7 14 -7 -5 -8 -2 -3 7 19 32 39 49
55 44 11 -4 21 3 28 20 7 14 19 28 27 31 8 4 15 14 15 24 0 23 -36 63 -50 55
-6 -4 -17 -2 -25 5 -8 7 -15 7 -19 1 -4 -6 -12 -8 -19 -6 -11 4 -102 14 -155
17 -15 2 -21 7 -17 16 4 12 3 13 -10 2 -9 -7 -22 -9 -32 -5 -10 5 -29 9 -43 9
-14 1 -31 5 -37 9 -7 5 -17 6 -22 2 -5 -3 -12 -1 -16 5 -3 5 -19 10 -36 10
-16 0 -29 5 -29 10 0 6 -6 10 -12 8 -15 -3 -108 21 -123 32 -5 4 -23 10 -39
14 -16 4 -72 28 -124 53 -167 80 -237 180 -246 348 -4 68 7 92 67 150 52 50
113 156 103 180 -2 6 0 18 4 25 5 8 6 18 3 23 -3 5 -7 30 -9 56 -10 106 -30
156 -95 225 -66 72 -79 94 -79 136 0 35 12 62 46 103 13 16 24 39 24 53 0 15
6 24 16 24 20 0 171 86 194 110 3 3 25 21 50 40 72 56 91 73 134 116 51 52
116 124 116 130 0 2 20 30 44 61 38 50 60 86 110 178 6 11 13 22 16 25 3 3 21
37 40 77 18 40 37 70 42 67 4 -3 5 2 2 11 -4 8 -2 21 4 28 6 6 10 14 10 17 1
7 21 61 32 85 9 19 48 143 55 175 2 8 9 38 15 65 45 187 59 721 25 940 -3 17
-7 44 -9 60 -2 17 -7 46 -10 65 -4 19 -8 46 -10 60 -2 14 -6 32 -9 40 -3 8 -8
29 -11 45 -8 51 -16 88 -28 130 -13 47 -17 59 -22 83 -3 9 -5 17 -6 17 -1 0
-3 9 -5 20 -2 11 -15 65 -29 120 -28 105 -34 131 -42 180 -3 17 -10 32 -15 33
-5 2 -7 8 -3 13 3 5 0 35 -7 67 -14 64 -13 59 -31 167 -7 44 -12 88 -11 98 0
9 -2 17 -6 17 -6 0 -10 37 -10 103 0 21 -5 37 -12 37 -8 0 -9 4 0 13 6 8 9 16
7 18 -10 11 -14 89 -5 95 8 4 8 9 1 13 -12 7 -19 92 -8 109 4 8 1 12 -11 12
-11 0 -14 3 -7 8 6 4 10 31 9 62 -1 30 2 60 7 67 5 6 5 14 0 16 -4 3 -6 50 -4
104 3 54 5 124 6 155 1 32 3 58 6 58 3 0 6 24 7 53 2 47 7 88 17 142 2 11 -2
23 -8 27 -8 5 -7 8 2 8 7 0 12 13 12 33 0 18 5 38 12 45 9 9 9 12 -1 12 -11 0
-11 3 -1 15 7 8 10 24 7 35 -3 11 -2 20 2 20 4 0 7 10 8 23 1 12 5 36 9 52 4
17 8 42 8 58 1 15 4 27 7 27 4 0 10 21 14 48 5 26 10 52 11 57 5 19 15 60 20
85 3 13 11 31 17 39 10 12 9 13 -3 6 -12 -6 -13 -5 -2 6 6 7 12 23 12 36 0 13
3 23 8 23 4 0 8 11 9 25 4 44 6 55 13 55 3 0 6 8 7 18 1 9 13 52 28 95 14 43
23 83 19 89 -4 7 -3 8 4 4 7 -4 12 -1 12 9 0 9 17 51 37 93 20 42 37 83 36 89
0 7 3 11 7 8 4 -3 11 11 14 30 7 38 -9 65 -37 65 -9 0 -17 4 -19 9 -1 6 -14
12 -28 14 -14 3 -38 10 -53 16 -16 6 -39 9 -52 7 -13 -3 -25 -1 -27 4 -4 11
-130 27 -263 33 -27 1 -56 6 -62 10 -8 5 -13 4 -13 -3 0 -6 -5 -8 -12 -3 -7 4
-40 8 -73 9 -551 17 -679 19 -693 10 -7 -4 -12 -3 -12 1 0 5 -27 8 -60 7 -58
-2 -86 10 -61 26 7 4 14 26 16 48 3 35 -1 44 -23 59 -33 21 -48 24 -77 13 -14
-5 -26 -5 -32 1 -7 7 -16 5 -27 -7 -13 -12 -20 -14 -29 -5 -19 19 -38 12 -52
-21 -11 -26 -14 -28 -15 -12 0 30 -27 52 -36 30 -8 -20 -34 -21 -34 -1 0 12
-5 12 -41 0 -37 -13 -40 -13 -29 0 7 8 9 15 5 15 -4 0 -2 7 5 14 6 8 14 30 17
48 3 18 10 36 15 39 7 4 6 9 -1 13 -6 4 -8 12 -5 18 5 8 -4 9 -29 5 l-37 -6 0
53 c0 64 -17 85 -55 68 -24 -11 -25 -10 -26 28 -1 38 -4 54 -9 65 -1 3 -3 8
-4 13 -5 22 -24 44 -30 33 -15 -24 -36 -11 -36 23 0 36 -18 96 -28 96 -4 0
-13 -4 -21 -9 -11 -7 -19 0 -33 32 -20 43 -45 77 -59 77 -4 0 -11 -15 -14 -32z
m35 -208 c0 -5 -2 -10 -4 -10 -3 0 -8 5 -11 10 -3 6 -1 10 4 10 6 0 11 -4 11
-10z m54 -130 c-5 -5 -10 3 -11 18 -1 22 0 24 9 8 6 -10 6 -22 2 -26z m6 -24
c0 -3 -4 -8 -10 -11 -5 -3 -10 -1 -10 4 0 6 5 11 10 11 6 0 10 -2 10 -4z m-6
-41 c3 -8 1 -15 -4 -15 -6 0 -10 7 -10 15 0 8 2 15 4 15 2 0 6 -7 10 -15z m0
-53 c3 -5 -1 -9 -9 -9 -8 0 -12 4 -9 9 3 4 7 8 9 8 2 0 6 -4 9 -8z m-21 -63
c-6 -6 -9 -1 -7 13 3 33 6 36 11 14 3 -10 1 -22 -4 -27z m1 -27 c-6 -4 -10
-19 -9 -34 1 -20 -2 -25 -14 -20 -9 3 -10 7 -4 9 6 2 9 15 7 29 -3 18 0 24 13
24 11 0 14 -3 7 -8z m-19 -92 c-2 -11 2 -20 8 -20 7 0 4 -5 -5 -11 -10 -5 -15
-16 -12 -24 4 -8 2 -15 -4 -15 -11 0 -11 18 1 38 5 7 3 12 -5 13 -9 0 -10 2
-1 5 7 3 9 12 6 20 -3 8 0 14 5 14 6 0 9 -9 7 -20z m-18 -112 c-3 -7 -5 -2 -5
12 0 14 2 19 5 13 2 -7 2 -19 0 -25z m168 22 c-3 -5 -12 -10 -18 -10 -7 0 -6
4 3 10 19 12 23 12 15 0z m850 -52 c5 4 5 1 1 -6 -6 -10 -11 -10 -22 -1 -8 6
-14 14 -14 16 0 3 6 0 13 -6 8 -6 18 -7 22 -3z m-79 -14 c-1 -8 -6 -17 -10
-21 -4 -4 -6 -1 -4 7 2 8 -3 14 -10 12 -8 -1 -11 1 -8 6 8 14 34 10 32 -4z
m180 -1 c-3 -20 -22 -28 -31 -14 -3 7 0 8 10 5 11 -5 14 -2 9 10 -3 9 -2 16 4
16 6 0 9 -8 8 -17z m41 2 c0 -8 -4 -15 -9 -15 -10 0 -11 14 -1 23 9 10 10 9
10 -8z m178 5 c3 -5 1 -10 -4 -10 -6 0 -11 5 -11 10 0 6 2 10 4 10 3 0 8 -4
11 -10z m-139 -27 c-6 -15 10 -18 17 -3 3 6 4 5 3 -2 -1 -7 -11 -14 -22 -15
-10 -1 -28 -4 -39 -6 -11 -2 -14 -2 -7 0 6 3 12 9 12 14 0 6 5 7 12 3 7 -5 9
-2 6 8 -4 9 0 15 8 15 8 0 13 -6 10 -14z m218 5 c-3 -4 -11 -5 -19 -1 -21 7
-19 12 4 10 11 0 18 -5 15 -9z m72 -16 c-13 -13 -18 -14 -28 -3 -7 7 -8 12 -3
11 23 -5 36 1 29 12 -5 7 -3 8 5 3 10 -6 9 -11 -3 -23z m119 18 c-3 -5 -12
-10 -18 -10 -7 0 -6 4 3 10 19 12 23 12 15 0z m-758 -22 c-3 -8 -6 -5 -6 6 -1
11 2 17 5 13 3 -3 4 -12 1 -19z m110 7 c0 -8 -4 -12 -9 -9 -5 3 -6 10 -3 15 9
13 12 11 12 -6z m97 -1 c3 -8 2 -13 -3 -10 -5 3 -12 -1 -15 -10 -3 -8 -10 -12
-16 -9 -5 3 -10 1 -10 -4 0 -14 15 -14 43 0 21 10 22 10 2 -6 -23 -18 -50 -16
-50 5 0 8 6 14 14 12 9 -2 11 3 7 13 -3 9 -2 13 4 10 6 -3 10 -1 10 4 0 16 7
13 14 -5z m30 -9 c9 -14 13 -25 8 -25 -5 0 -14 11 -20 25 -6 14 -10 25 -8 25
2 0 11 -11 20 -25z m352 16 c-3 -4 3 -16 14 -26 11 -10 17 -21 15 -26 -3 -4
-1 -10 5 -14 5 -3 10 3 10 14 0 11 5 23 11 27 8 4 9 -1 4 -17 -7 -22 -6 -22 9
-10 9 8 15 20 12 27 -3 7 0 16 6 20 7 4 8 3 4 -4 -4 -7 -2 -12 5 -12 10 0 10
-3 1 -12 -7 -7 -12 -16 -12 -22 0 -6 5 -5 12 2 9 9 15 9 26 -1 13 -10 14 -8 7
12 -5 17 -4 21 5 16 6 -4 9 -17 6 -29 -4 -16 -1 -23 10 -23 9 0 13 6 10 14 -3
8 -1 11 4 8 9 -6 15 9 11 29 -2 10 29 -12 41 -29 5 -6 8 -5 8 3 0 6 5 12 12
12 9 0 9 -3 0 -12 -21 -21 -13 -29 12 -13 19 13 29 14 45 6 31 -17 38 -12 13
9 -21 17 -21 19 -3 17 11 0 18 -4 15 -9 -2 -4 4 -12 15 -17 28 -16 39 -13 17
4 -18 13 -18 14 2 12 11 0 19 -4 16 -8 -2 -4 3 -10 12 -13 12 -4 15 -2 11 9
-4 8 -1 17 5 21 6 4 8 3 5 -2 -8 -14 8 -37 27 -40 9 -1 16 1 16 5 0 4 9 7 20
8 16 1 17 -1 7 -12 -6 -7 -20 -11 -30 -9 -11 2 -17 -2 -14 -9 3 -7 10 -11 17
-9 7 1 19 -3 27 -10 14 -11 15 -10 10 12 -4 14 -4 20 -1 13 4 -10 8 -10 19 0
7 7 11 15 9 18 -2 3 3 6 11 6 10 0 12 -4 5 -12 -5 -7 -6 -16 -2 -20 4 -5 1 -5
-7 0 -9 5 -12 3 -9 -6 6 -14 9 -15 43 -4 11 3 8 -1 -8 -10 -26 -15 -27 -17
-12 -45 11 -21 12 -31 3 -36 -7 -4 -8 -3 -4 4 13 22 -13 12 -28 -10 -15 -21
-16 -21 -16 -3 0 14 -3 16 -12 7 -8 -8 -8 -15 3 -29 13 -16 13 -16 -11 0 -33
23 -51 21 -22 -3 22 -19 22 -19 1 -25 -14 -5 -18 -12 -14 -23 5 -14 4 -14 -13
1 -18 16 -32 14 -32 -5 0 -5 6 -6 13 -2 6 4 9 4 5 -1 -4 -4 -2 -15 5 -24 10
-14 10 -14 -4 -4 -9 7 -20 9 -24 5 -5 -4 -5 -2 -1 5 3 6 -3 18 -16 27 -12 9
-19 19 -15 22 10 10 -12 34 -31 34 -13 0 -12 -3 4 -16 10 -8 13 -13 7 -9 -7 3
-13 4 -13 1 0 -2 -3 -13 -7 -23 -6 -16 -5 -16 10 -4 10 7 17 9 17 3 0 -18 -24
-20 -44 -3 -18 15 -18 15 -12 -6 5 -14 3 -23 -3 -23 -6 0 -10 3 -9 8 4 15 -14
52 -23 47 -5 -3 -6 0 -3 8 3 8 0 18 -7 23 -7 4 -10 3 -5 -4 3 -6 1 -14 -5 -18
-9 -5 -7 -11 6 -21 11 -7 14 -13 8 -13 -7 0 -15 5 -19 11 -5 8 -10 6 -16 -5
-5 -9 -14 -13 -20 -10 -8 5 -9 1 -4 -12 5 -14 4 -16 -5 -7 -12 12 -3 37 11 28
9 -6 23 25 15 34 -3 3 -11 -1 -16 -9 -9 -13 -10 -13 -6 0 2 8 14 14 25 13 15
-2 20 2 16 12 -4 9 0 15 9 15 9 0 18 -8 22 -19 3 -10 13 -18 23 -17 9 0 16 -5
15 -11 -2 -7 2 -13 7 -13 13 0 13 27 -1 35 -6 4 -8 13 -5 21 3 7 1 16 -5 19
-5 4 -9 3 -8 -2 1 -4 1 -15 0 -23 -1 -13 -3 -13 -10 -1 -5 8 -6 21 -3 30 4 12
2 14 -9 6 -16 -12 -39 -13 -56 -2 -7 5 -13 4 -13 0 0 -5 6 -16 13 -23 10 -13
10 -13 -2 -2 -20 16 -27 15 -28 -5 -1 -23 -11 -65 -17 -70 -2 -2 -3 12 -3 31
1 19 5 32 9 30 4 -3 8 0 8 7 0 6 -8 9 -19 6 -15 -4 -18 -1 -13 12 5 14 4 14
-20 -1 -22 -14 -27 -15 -32 -3 -3 9 0 12 10 8 10 -4 12 0 8 11 -3 9 -10 13
-15 10 -5 -3 -6 3 -2 13 6 16 5 16 -10 5 -8 -8 -13 -20 -10 -28 3 -8 0 -14 -6
-14 -6 0 -10 5 -8 11 1 6 -4 14 -12 17 -8 2 -11 0 -7 -6 10 -16 -13 -25 -29
-12 -17 14 -20 -1 -4 -17 7 -7 3 -17 -17 -32 -15 -11 -32 -21 -38 -20 -7 0 -6
3 2 6 6 2 10 9 7 14 -4 5 1 6 11 2 14 -5 15 -3 5 15 -6 11 -16 24 -22 28 -13
8 -46 -22 -35 -33 4 -4 11 -1 16 7 5 8 11 12 14 10 2 -3 -2 -14 -10 -24 -13
-19 -15 -19 -27 -2 -12 16 -10 22 10 42 28 28 29 40 3 40 -14 0 -19 -5 -15
-14 3 -8 -3 -21 -12 -28 -28 -21 -38 -16 -12 6 13 10 19 19 14 20 -6 0 -16 -5
-23 -12 -7 -7 -12 -9 -12 -5 0 3 12 18 27 32 15 14 23 25 17 25 -5 0 -15 -5
-22 -12 -9 -9 -12 -9 -12 0 0 7 6 12 13 12 8 0 7 3 -3 10 -16 10 -36 -12 -26
-29 4 -5 1 -20 -4 -33 -10 -22 -10 -22 -5 3 4 21 0 28 -14 32 -23 6 -64 -20
-56 -34 4 -5 1 -9 -4 -9 -17 0 -13 14 9 40 12 13 18 31 15 41 -5 15 0 17 26
16 18 -1 34 3 36 9 2 7 -17 11 -58 10 -61 -1 -89 14 -53 28 14 5 15 4 5 -8 -9
-11 -7 -13 15 -13 18 0 22 3 15 10 -7 7 -1 16 20 29 31 19 54 16 45 -7 -5 -15
9 -30 40 -39 15 -4 21 -2 21 9 0 10 -6 13 -18 10 -21 -7 -35 13 -20 28 8 8 17
5 35 -12 l24 -23 23 23 c15 15 20 17 16 6 -4 -10 1 -21 12 -29 18 -13 21 -18
21 -39 0 -5 5 -7 10 -4 6 4 8 11 4 16 -3 5 0 16 6 25 11 12 9 14 -10 12 -13
-2 -25 3 -27 12 -4 13 -3 13 6 0 5 -8 13 -11 17 -7 4 3 2 13 -4 20 -7 8 -9 17
-5 20 9 10 15 9 9 -2z m209 -11 c16 -17 16 -20 3 -15 -9 4 -19 13 -22 21 -7
19 -2 18 19 -6z m-871 -6 c3 -8 2 -12 -4 -9 -6 3 -10 10 -10 16 0 14 7 11 14
-7z m50 7 c3 -5 -1 -11 -9 -14 -9 -4 -12 -1 -8 9 6 16 10 17 17 5z m51 0 c3
-5 2 -12 -3 -15 -5 -3 -9 1 -9 9 0 17 3 19 12 6z m121 -3 c4 -7 4 -10 -1 -6
-4 4 -14 0 -21 -10 -12 -15 -12 -15 -7 6 6 24 18 29 29 10z m134 2 c-8 -5 -19
-10 -25 -10 -5 0 -3 5 5 10 8 5 20 10 25 10 6 0 3 -5 -5 -10z m231 1 c4 7 11
10 16 6 9 -9 -17 -28 -29 -21 -4 3 -8 11 -7 17 0 8 3 7 6 -2 4 -11 7 -11 14 0z
m369 -8 c0 -2 -8 -3 -17 -1 -11 2 -17 -2 -15 -10 1 -8 -2 -11 -8 -7 -16 10 8
35 26 28 8 -3 14 -7 14 -10z m-795 -14 c-8 -12 -35 -12 -35 1 0 5 7 6 17 3 12
-5 14 -3 8 7 -5 9 -4 11 4 6 6 -4 9 -12 6 -17z m663 -4 c-3 -3 -9 2 -12 12 -6
14 -5 15 5 6 7 -7 10 -15 7 -18z m-854 7 c3 -5 -1 -9 -9 -9 -8 0 -12 4 -9 9 3
4 7 8 9 8 2 0 6 -4 9 -8z m129 -26 c3 -8 0 -17 -7 -19 -10 -4 -12 1 -9 14 6
23 9 24 16 5z m97 -1 c0 -1 -12 -2 -26 -2 -17 0 -22 2 -13 7 10 7 39 3 39 -5z
m175 5 c3 -5 1 -10 -4 -10 -6 0 -11 5 -11 10 0 6 2 10 4 10 3 0 8 -4 11 -10z
m-63 -7 c-6 -2 -10 -9 -7 -14 4 -5 -1 -6 -10 -2 -15 5 -15 3 -4 -15 7 -11 18
-20 23 -19 17 3 13 -46 -4 -50 -9 -3 -11 -1 -5 4 13 11 19 47 7 39 -6 -3 -17
5 -26 19 -15 22 -15 25 2 34 9 6 22 10 27 10 6 0 4 -3 -3 -6z m-82 -13 c0 -5
-4 -10 -10 -10 -5 0 -10 5 -10 10 0 6 5 10 10 10 6 0 10 -4 10 -10z m125 -11
c0 -8 4 -17 10 -21 5 -4 7 -9 5 -12 -10 -9 -53 31 -46 43 10 15 31 9 31 -10z
m-208 5 c-3 -4 -1 -16 5 -28 10 -20 9 -20 -7 -4 -15 14 -14 38 2 38 4 0 3 -3
0 -6z m48 -12 c-3 -3 -11 0 -18 7 -9 10 -8 11 6 5 10 -3 15 -9 12 -12z m201
10 c8 -5 7 -11 -4 -22 -14 -13 -15 -12 -9 2 3 9 1 19 -6 22 -7 2 -7 5 -2 5 6
0 15 -3 21 -7z m-131 -13 c11 -16 1 -19 -13 -3 -7 8 -8 14 -3 14 5 0 13 -5 16
-11z m171 2 c-4 -5 -1 -11 5 -13 6 -2 0 -12 -12 -23 -12 -11 -19 -14 -15 -7 4
6 2 12 -3 12 -6 0 -11 5 -11 11 0 8 6 7 16 -2 15 -12 16 -11 10 9 -5 14 -3 22
4 22 6 0 9 -4 6 -9z m-429 -33 c2 -17 0 -19 -7 -8 -5 8 -6 18 -4 22 8 12 10
10 11 -14z m179 7 c-1 -8 -5 -17 -8 -21 -5 -4 -4 16 1 34 3 9 9 -1 7 -13z m59
5 c-3 -5 -1 -10 6 -10 7 0 10 -3 6 -6 -9 -9 -28 6 -22 17 4 5 8 9 11 9 3 0 2
-4 -1 -10z m50 -20 c3 -6 -1 -7 -9 -4 -18 7 -21 14 -7 14 6 0 13 -4 16 -10z
m52 -12 c-3 -8 -6 -5 -6 6 -1 11 2 17 5 13 3 -3 4 -12 1 -19z m56 -18 c-3 -3
-8 1 -10 8 -3 6 -9 10 -14 6 -10 -6 -12 9 -2 19 3 4 12 -1 19 -11 7 -9 10 -19
7 -22z m-296 15 c0 -8 -4 -12 -9 -9 -5 3 -6 10 -3 15 9 13 12 11 12 -6z m120
0 c0 -8 -4 -15 -9 -15 -10 0 -11 14 -1 23 9 10 10 9 10 -8z m1000 9 c-3 -3
-12 -4 -19 -1 -8 3 -5 6 6 6 11 1 17 -2 13 -5z m-1172 -14 c3 -6 -1 -7 -9 -4
-18 7 -21 14 -7 14 6 0 13 -4 16 -10z m230 0 c3 -6 -1 -7 -9 -4 -18 7 -21 14
-7 14 6 0 13 -4 16 -10z m201 -25 c1 -14 -2 -22 -7 -19 -11 6 -12 44 -1 44 4
0 8 -11 8 -25z m-98 -3 c2 -7 9 -9 15 -5 7 3 9 3 5 -1 -3 -4 -9 -7 -13 -6 -3
0 -15 -9 -26 -22 l-21 -23 16 25 c9 13 16 28 16 31 0 8 -20 6 -36 -3 -6 -4
-11 -1 -11 6 0 16 49 15 55 -2z m862 8 c0 -5 -2 -10 -4 -10 -3 0 -8 5 -11 10
-3 6 -1 10 4 10 6 0 11 -4 11 -10z m-933 -16 c-3 -3 -12 -4 -19 -1 -8 3 -5 6
6 6 11 1 17 -2 13 -5z m149 -28 c2 -14 1 -26 -3 -26 -5 0 -9 14 -9 31 -2 35 5
33 12 -5z m-161 12 c5 4 5 1 1 -6 -6 -10 -11 -10 -22 -1 -8 6 -14 14 -14 16 0
3 6 0 13 -6 8 -6 18 -7 22 -3z m132 -4 c-3 -3 -12 -4 -19 -1 -8 3 -5 6 6 6 11
1 17 -2 13 -5z m93 -9 c0 -1 -12 -2 -26 -2 -17 0 -22 2 -13 7 10 7 39 3 39 -5z
m190 5 c0 -5 -6 -7 -14 -4 -8 3 -17 1 -21 -5 -3 -7 3 -11 17 -12 13 0 17 -3
10 -6 -21 -8 -42 5 -36 22 7 16 44 21 44 5z m39 -11 c16 11 41 4 41 -11 0 -7
-4 -7 -13 0 -9 8 -19 5 -37 -8 -14 -11 -29 -20 -35 -19 -5 0 -3 4 7 9 10 6 15
19 12 32 -3 17 -2 19 3 6 6 -12 13 -14 22 -9z m468 3 c0 -10 -7 -19 -14 -19
-9 0 -10 4 -3 12 5 7 7 15 3 18 -3 4 -1 7 5 7 6 0 10 -8 9 -18z m-44 -5 c3 -8
-1 -14 -8 -14 -7 0 -11 6 -8 14 3 7 6 13 8 13 2 0 5 -6 8 -13z m-627 -9 c5 -7
3 -8 -6 -3 -10 6 -12 2 -8 -17 3 -15 0 -25 -8 -25 -7 0 -10 6 -8 14 11 37 14
43 18 43 3 0 8 -5 12 -12z m-49 -20 c-3 -8 -6 -5 -6 6 -1 11 2 17 5 13 3 -3 4
-12 1 -19z m-121 0 c3 -4 -1 -5 -10 -4 -8 1 -18 5 -22 8 -3 4 1 5 10 4 8 -1
18 -5 22 -8z m280 3 c-4 -5 -1 -12 4 -14 6 -3 5 -4 -2 -3 -15 3 -23 26 -8 26
6 0 9 -4 6 -9z m134 -6 c0 -1 -12 -2 -26 -2 -17 0 -22 2 -13 7 10 7 39 3 39
-5z m-476 -13 c3 -5 -1 -9 -9 -9 -8 0 -12 4 -9 9 3 4 7 8 9 8 2 0 6 -4 9 -8z
m266 -1 c0 -6 -4 -12 -8 -15 -5 -3 -9 1 -9 9 0 8 4 15 9 15 4 0 8 -4 8 -9z
m55 -1 c3 -6 -1 -7 -9 -4 -18 7 -21 14 -7 14 6 0 13 -4 16 -10z m489 2 c3 -5
-1 -9 -9 -9 -8 0 -12 4 -9 9 3 4 7 8 9 8 2 0 6 -4 9 -8z m-384 -6 c0 -2 -7 -9
-15 -16 -13 -11 -14 -10 -9 4 5 14 24 23 24 12z m42 -10 c7 4 8 2 4 -5 -9 -13
-26 -5 -25 12 0 9 2 8 6 -1 2 -6 10 -9 15 -6z m-151 -13 c12 -16 12 -17 -2 -6
-9 7 -20 9 -24 5 -5 -4 -5 -1 -1 6 9 16 11 15 27 -5z m49 13 c0 -2 -7 -7 -16
-10 -8 -3 -12 -2 -9 4 6 10 25 14 25 6z m200 0 c0 -2 -7 -7 -16 -10 -8 -3 -12
-2 -9 4 6 10 25 14 25 6z m131 -33 c-11 -16 -11 -16 -6 4 5 19 3 22 -12 17
-15 -5 -15 -4 -3 5 21 14 35 -3 21 -26z m149 33 c0 -3 -4 -8 -10 -11 -5 -3
-10 -1 -10 4 0 6 5 11 10 11 6 0 10 -2 10 -4z m-467 -21 c-3 -9 -8 -14 -10
-11 -3 3 -2 9 2 15 9 16 15 13 8 -4z m125 2 c8 -10 6 -13 -7 -13 -11 0 -17 6
-14 13 3 7 6 13 8 13 1 0 7 -6 13 -13z m-43 -15 c-3 -3 -11 0 -18 7 -9 10 -8
11 6 5 10 -3 15 -9 12 -12z m179 6 c-5 -7 -2 -9 8 -6 9 4 15 0 15 -8 0 -8 -3
-12 -5 -9 -3 3 -10 0 -17 -5 -8 -7 -11 -3 -9 13 3 27 3 27 10 27 3 0 2 -5 -2
-12z m-581 -13 c-3 -9 -8 -14 -10 -11 -3 3 -2 9 2 15 9 16 15 13 8 -4z m340 0
c-3 -9 -8 -14 -10 -11 -3 3 -2 9 2 15 9 16 15 13 8 -4z m37 -39 c0 -2 -8 -10
-17 -17 -16 -13 -17 -12 -4 4 13 16 21 21 21 13z m225 -14 c-3 -3 -11 0 -18 7
-9 10 -8 11 6 5 10 -3 15 -9 12 -12z m40 0 c-3 -3 -11 0 -18 7 -9 10 -8 11 6
5 10 -3 15 -9 12 -12z m-2115 -6916 c-7 -7 -13 -7 -20 0 -6 6 -3 10 10 10 13
0 16 -4 10 -10z m207 -22 c-3 -3 -12 -4 -19 -1 -8 3 -5 6 6 6 11 1 17 -2 13
-5z m434 -34 c9 13 10 13 6 0 -2 -8 -10 -15 -17 -15 -7 0 -15 7 -17 15 -4 13
-3 13 6 0 10 -13 12 -13 22 0z m890 -6 c12 -14 14 -14 26 2 7 10 13 13 13 7 0
-6 -6 -16 -14 -22 -12 -10 -19 -8 -35 8 -12 12 -17 21 -12 21 5 0 14 -7 22
-16z m836 -19 c0 -8 -4 -12 -9 -9 -5 3 -6 10 -3 15 9 13 12 11 12 -6z m-68
-21 c-5 -6 -5 -15 -1 -20 4 -4 -1 -2 -10 5 -9 7 -21 10 -26 7 -6 -3 -14 0 -20
7 -8 9 -2 12 28 12 27 0 36 -3 29 -11z m-2148 -15 c5 -8 9 -9 9 -3 0 6 11 10
25 10 31 -2 41 -12 12 -13 -12 -1 -33 -4 -46 -7 -27 -6 -65 10 -56 24 8 14 45
6 56 -11z m2019 1 c3 -1 8 -2 12 -1 11 1 2 -30 -12 -39 -7 -5 -30 -7 -51 -5
-27 3 -42 -2 -55 -16 -18 -20 -60 -27 -49 -8 4 6 13 8 20 5 21 -8 24 17 6 38
-16 19 -15 19 14 0 25 -15 28 -16 17 -2 -12 15 -10 16 18 13 23 -3 31 -1 27 9
-4 9 3 12 21 10 15 -1 29 -3 32 -4z m-1812 -29 c11 -15 12 -15 7 0 -5 13 3 15
40 15 25 -1 43 -5 41 -11 -2 -5 -9 -9 -16 -7 -11 2 -10 -1 0 -15 22 -28 24
-29 17 -11 -7 21 9 33 44 34 17 0 26 -5 25 -14 -1 -9 9 -16 21 -17 12 -1 21 3
20 8 -1 5 6 11 15 12 16 3 16 1 3 -18 -16 -23 -79 -33 -71 -11 3 9 -1 11 -12
7 -15 -6 -15 -4 -4 9 11 14 11 16 -2 14 -26 -4 -30 -16 -11 -29 16 -12 16 -15
2 -20 -19 -7 -70 31 -64 47 3 7 -5 12 -17 13 -11 0 -15 -1 -8 -4 6 -3 12 -8
12 -12 0 -15 -36 -6 -65 17 -19 14 -23 20 -10 15 11 -4 26 -14 33 -22z m1648
-4 c5 5 0 -2 -10 -15 -18 -20 -21 -21 -29 -7 -8 15 -12 14 -33 -6 -13 -12 -24
-18 -25 -13 0 5 -2 17 -4 26 -2 10 2 21 7 25 6 3 8 1 4 -5 -3 -6 -2 -14 4 -17
14 -9 42 14 34 27 -4 6 5 3 18 -6 14 -9 29 -13 34 -9z m-1200 -12 c1 -15 -2
-22 -9 -18 -6 3 -7 1 -3 -5 4 -7 5 -12 2 -12 -2 0 -12 -3 -21 -6 -13 -5 -12 0
6 30 11 20 22 36 22 36 1 0 3 -11 3 -25z m827 12 c4 3 7 1 7 -6 0 -8 6 -11 16
-7 17 6 64 -18 64 -32 0 -15 -39 -11 -52 5 -11 14 -10 15 12 8 14 -4 22 -4 18
0 -4 4 -24 9 -45 10 -33 3 -35 2 -15 -8 12 -5 22 -14 22 -19 0 -13 -8 -10 -43
14 -18 13 -34 24 -37 26 -2 2 2 7 10 12 8 5 19 5 26 0 6 -6 14 -7 17 -3z
m-1393 -7 c0 -5 -5 -10 -11 -10 -5 0 -7 5 -4 10 3 6 8 10 11 10 2 0 4 -4 4
-10z m393 -3 c3 -8 -1 -14 -8 -14 -7 0 -11 6 -8 14 3 7 6 13 8 13 2 0 5 -6 8
-13z m223 1 c4 -7 4 -10 -1 -6 -4 4 -14 3 -22 -4 -11 -8 -12 -7 -7 6 7 19 20
21 30 4z m81 -23 c3 -19 -1 -23 -17 -22 -11 1 -18 6 -16 12 2 5 10 9 17 7 9
-1 7 3 -4 12 -13 10 -15 15 -5 19 17 6 21 1 25 -28z m186 22 c3 -7 -3 -13 -13
-13 -10 0 -16 6 -13 13 7 17 19 17 26 0z m200 -1 c3 -8 -2 -20 -11 -28 -15
-11 -15 -11 -5 3 10 12 10 18 1 27 -8 8 -9 12 -1 12 6 0 13 -6 16 -14z m210
-16 c4 0 12 0 18 0 8 0 8 -5 -1 -15 -16 -19 -30 -19 -30 1 0 10 -6 13 -18 10
-13 -4 -18 0 -19 14 -2 18 0 18 20 5 12 -8 25 -14 30 -15z m-116 7 c2 -3 -3
-7 -11 -10 -8 -3 -20 0 -26 8 -10 12 -8 13 10 10 13 -2 25 -6 27 -8z m-657
-17 c-15 -28 9 -42 33 -19 29 27 45 24 19 -4 -16 -17 -19 -26 -11 -34 8 -8 6
-11 -7 -10 -15 2 -74 65 -74 80 0 2 11 3 24 3 20 0 23 -3 16 -16z m500 -6 c0
-7 -9 -12 -19 -11 -10 0 -17 6 -14 12 5 16 33 15 33 -1z m190 -52 c0 -4 -9 -8
-21 -9 -17 -2 -18 1 -9 12 12 14 30 12 30 -3z"/>
<path d="M5135 8330 c-3 -5 -3 -16 1 -22 5 -9 2 -9 -9 1 -11 9 -17 10 -17 2 0
-6 3 -11 8 -12 4 0 17 -2 29 -3 18 -2 20 0 12 10 -6 7 -8 18 -4 24 3 5 2 10
-4 10 -5 0 -13 -4 -16 -10z"/>
<path d="M5190 8320 c0 -5 5 -10 10 -10 6 0 10 5 10 10 0 6 -4 10 -10 10 -5 0
-10 -4 -10 -10z"/>
<path d="M5270 8303 c0 -7 5 -13 12 -13 6 0 9 -3 5 -6 -3 -3 -12 -2 -19 2 -18
11 -39 14 -33 5 2 -5 -2 -16 -9 -26 -10 -14 -15 -15 -21 -5 -6 9 -4 11 6 5 11
-6 12 -5 2 5 -10 11 -16 11 -30 -1 -10 -9 -27 -14 -38 -14 -13 1 -21 -4 -21
-15 0 -23 34 -23 46 1 10 18 13 18 41 4 16 -9 27 -20 24 -25 -4 -6 -1 -10 4
-10 6 0 11 7 11 15 0 8 -5 15 -12 15 -6 0 -9 3 -5 6 9 9 32 -9 32 -25 0 -8 7
-17 15 -19 13 -5 13 -3 1 11 -9 11 -10 17 -2 17 6 0 3 8 -6 18 -10 11 -22 17
-27 14 -5 -3 -6 0 -2 6 5 8 13 9 25 2 10 -5 20 -7 22 -5 4 3 3 -50 0 -77 -1
-4 -9 -4 -18 -1 -14 5 -12 0 7 -24 14 -17 29 -28 34 -25 5 3 2 11 -8 17 -15
11 -13 15 16 44 17 17 27 31 22 31 -6 0 -15 -5 -22 -12 -7 -7 -12 -8 -12 -2 0
16 47 34 67 27 16 -6 17 -5 3 13 -14 18 -14 18 4 4 18 -14 19 -13 13 3 -4 11
-3 16 3 12 6 -3 10 -1 10 4 0 14 -6 14 -32 0 -16 -8 -23 -8 -30 2 -8 11 -9 10
-5 -2 5 -16 -9 -39 -25 -39 -4 0 -8 6 -8 14 0 17 -39 65 -40 49z"/>
<path d="M5503 8287 c-10 -21 -17 -25 -42 -21 -34 6 -40 -6 -14 -27 15 -12 16
-12 11 3 -5 11 -2 15 10 13 9 -1 23 3 31 9 11 8 13 8 7 -1 -4 -8 -1 -13 8 -13
17 0 20 10 9 26 -5 5 -1 1 9 -8 19 -21 38 -23 38 -5 0 7 3 8 8 2 4 -5 14 -10
22 -10 8 0 19 5 23 10 5 6 7 4 4 -5 -2 -8 -12 -13 -23 -12 -22 4 -18 -1 15
-18 13 -6 21 -7 17 -2 -7 11 9 25 32 28 6 1 9 -3 6 -8 -4 -7 -2 -8 5 -4 14 9
11 -15 -4 -27 -6 -5 -2 -6 8 -3 12 4 16 2 11 -6 -5 -7 -3 -8 6 -3 9 5 11 4 6
-3 -4 -7 -2 -10 7 -6 8 3 20 -3 28 -13 13 -16 12 -17 -4 -4 -20 16 -35 8 -20
-11 6 -7 9 -21 8 -31 -2 -10 1 -14 7 -11 7 5 8 2 3 -6 -6 -9 -4 -11 5 -5 9 5
11 4 6 -4 -4 -6 -12 -9 -17 -5 -5 3 -16 1 -23 -5 -9 -8 -13 -7 -13 4 0 8 4 12
8 10 9 -6 20 21 12 29 -3 3 -12 -2 -20 -12 -12 -16 -13 -16 -7 3 4 14 3 16 -4
7 -7 -11 -10 -11 -15 3 -4 9 -3 13 2 10 5 -3 12 -1 16 5 3 5 1 10 -5 10 -6 0
-8 5 -4 11 4 8 9 7 16 -2 8 -12 9 -11 6 0 -7 25 -27 24 -39 -3 -7 -14 -18 -26
-26 -26 -7 0 -13 -5 -13 -10 0 -7 6 -7 18 -1 14 7 21 5 32 -12 8 -12 14 -25
15 -29 0 -14 14 -20 27 -12 7 5 18 9 23 10 6 0 16 2 24 2 11 2 11 6 -3 21 -17
19 -7 39 13 27 5 -3 14 1 21 9 6 7 17 12 24 9 7 -3 19 2 26 11 8 9 8 15 2 15
-6 0 -9 9 -7 20 4 22 -10 36 -20 20 -5 -8 -11 -8 -20 0 -9 8 -15 8 -20 0 -7
-11 -26 -14 -23 -2 1 4 -3 16 -9 27 -10 19 -20 21 -93 19 -44 -1 -84 -4 -87
-8 -4 -4 -16 5 -28 20 l-21 26 -11 -25z m202 -27 c-3 -5 -1 -10 4 -10 6 0 11
5 11 12 0 6 6 3 14 -7 8 -11 12 -23 10 -27 -8 -13 17 -20 31 -8 9 8 15 8 20 0
5 -8 10 -8 20 0 10 9 13 7 10 -7 -2 -10 -4 -24 -4 -31 -1 -7 -5 -11 -10 -8 -5
3 -14 -1 -21 -9 -7 -8 -16 -12 -22 -9 -5 3 -17 0 -26 -7 -9 -7 -14 -9 -10 -5
4 5 2 16 -5 25 -10 14 -10 14 3 4 10 -8 21 -9 30 -3 8 6 11 10 5 10 -31 1 -95
90 -65 90 6 0 8 -4 5 -10z"/>
<path d="M5716 8241 c-3 -5 9 -22 26 -37 18 -15 32 -32 30 -38 -2 -6 8 0 22
13 26 25 34 37 17 26 -5 -3 -13 -1 -16 5 -5 8 -11 7 -21 -1 -11 -9 -17 -9 -29
1 -8 7 -13 16 -10 20 3 5 1 11 -4 14 -5 4 -12 2 -15 -3z m78 -52 c-3 -5 -10
-7 -15 -3 -5 3 -7 10 -3 15 3 5 10 7 15 3 5 -3 7 -10 3 -15z"/>
<path d="M5418 8273 c-16 -36 -28 -44 -53 -37 l-20 6 20 -17 c11 -9 14 -13 7
-10 -7 4 -22 -1 -32 -10 -19 -17 -18 -35 1 -35 6 0 8 4 5 8 -2 4 0 14 5 22 8
12 12 12 16 2 4 -10 8 -10 19 -1 8 6 12 15 9 19 -3 4 2 11 11 14 8 3 12 2 9
-3 -6 -12 15 -61 27 -61 4 0 8 5 8 10 0 6 -5 10 -12 10 -6 0 -8 3 -4 7 4 4 16
-3 26 -17 18 -23 19 -24 37 -7 15 13 22 14 31 5 9 -9 12 -9 12 1 0 10 3 11 14
2 10 -8 16 -9 21 -2 4 7 16 6 35 -4 26 -14 29 -13 42 8 16 25 18 58 3 54 -5
-1 -9 -7 -7 -13 1 -6 -9 -11 -23 -11 -14 0 -22 4 -18 10 3 6 1 7 -5 3 -6 -4
-9 -14 -6 -24 4 -13 3 -13 -7 2 -12 19 -12 19 -25 1 -10 -14 -14 -15 -14 -4 0
12 -2 12 -10 -1 -8 -12 -10 -12 -10 -1 0 11 -4 10 -19 -3 -14 -12 -20 -14 -23
-5 -4 11 -22 18 -55 21 -7 1 -10 5 -7 10 3 5 11 5 17 1 7 -3 3 4 -8 16 -19 22
-19 23 -2 36 12 8 14 16 8 20 -6 3 -16 -7 -23 -22z m228 -79 c-9 -6 -12 -15
-8 -20 4 -4 -1 -2 -10 5 -22 16 -17 27 12 27 18 0 19 -2 6 -12z"/>
<path d="M5465 8232 c-3 -8 -3 -17 0 -20 3 -3 5 1 5 8 0 9 5 8 13 -5 14 -19
43 -12 31 7 -5 7 -2 8 7 2 20 -12 38 -14 45 -3 3 5 10 6 16 3 6 -4 8 -1 6 7
-6 15 -11 15 -42 3 -14 -5 -17 -4 -11 5 6 10 3 11 -13 2 -11 -6 -23 -16 -26
-23 -3 -7 -4 -4 -1 8 6 24 -21 30 -30 6z"/>
<path d="M5696 8162 c-3 -5 1 -9 9 -9 8 0 12 4 9 9 -3 4 -7 8 -9 8 -2 0 -6 -4
-9 -8z"/>
<path d="M5590 8099 c0 -5 5 -7 10 -4 6 3 10 8 10 11 0 2 -4 4 -10 4 -5 0 -10
-5 -10 -11z"/>
<path d="M4990 8270 c0 -5 5 -10 10 -10 6 0 10 5 10 10 0 6 -4 10 -10 10 -5 0
-10 -4 -10 -10z"/>
<path d="M5706 929 c3 -5 10 -7 15 -4 5 4 9 2 9 -4 0 -5 -5 -12 -10 -14 -6 -3
-5 -4 2 -3 19 4 16 29 -5 32 -9 1 -15 -2 -11 -7z"/>
<path d="M5670 906 c7 -7 13 -7 20 0 6 6 3 10 -10 10 -13 0 -16 -4 -10 -10z"/>
<path d="M5170 900 c0 -5 5 -10 11 -10 5 0 7 5 4 10 -3 6 -8 10 -11 10 -2 0
-4 -4 -4 -10z"/>
<path d="M6023 1065 c-13 -27 -19 -32 -30 -24 -9 8 -17 8 -27 0 -20 -17 -16
-47 6 -48 10 -1 16 2 13 7 -9 15 13 22 34 10 12 -6 18 -16 15 -25 -7 -17 4
-19 26 -5 11 7 11 10 2 10 -7 0 -10 5 -7 10 4 6 10 8 15 5 5 -3 12 0 16 6 4 8
3 9 -4 5 -19 -11 -14 5 6 20 16 13 16 14 -2 7 -13 -4 -17 -3 -12 5 5 8 1 10
-10 5 -12 -4 -15 -2 -12 8 3 8 11 13 17 11 7 -1 10 2 6 8 -5 8 -12 7 -23 -2
-13 -11 -15 -10 -9 5 11 31 -3 18 -20 -18z m35 -48 c-7 -14 -13 -16 -23 -7 -7
6 -12 19 -10 28 2 9 4 20 4 25 1 4 9 -1 19 -10 14 -13 16 -23 10 -36z m-72 11
c4 -7 3 -8 -4 -4 -7 4 -12 2 -12 -5 0 -7 -3 -10 -6 -6 -6 5 3 27 11 27 2 0 7
-5 11 -12z"/>
<path d="M6034 1035 c3 -21 16 -31 16 -12 0 9 -4 18 -9 21 -5 4 -8 -1 -7 -9z"/>
<path d="M3467 1062 c3 -8 0 -18 -8 -23 -12 -7 -12 -9 1 -9 13 0 13 -1 0 -11
-12 -8 -11 -9 5 -7 11 2 23 7 26 12 4 4 9 3 13 -2 3 -6 -3 -14 -15 -17 -20 -7
-20 -8 6 -21 22 -12 31 -12 43 -2 13 11 15 10 9 -4 -3 -10 1 -22 11 -30 15
-11 15 -11 5 2 -8 10 -9 21 -3 30 6 8 10 13 11 10 6 -34 8 -43 13 -48 3 -3 6
0 6 6 0 7 4 12 10 12 5 0 7 -8 4 -17 -5 -14 -4 -15 4 -4 5 7 15 10 22 6 6 -4
2 11 -9 33 -20 39 -41 62 -41 45 0 -5 5 -14 10 -19 7 -7 6 -11 -4 -11 -8 0
-12 5 -9 10 3 6 1 7 -5 3 -8 -5 -10 -2 -6 8 7 17 -11 22 -21 6 -3 -5 -12 -7
-21 -3 -11 4 -12 9 -3 19 8 10 8 14 0 14 -6 0 -11 -5 -11 -12 0 -6 -6 -3 -14
7 -8 11 -13 22 -11 26 2 3 -2 6 -9 6 -8 0 -12 -7 -9 -15z m23 -22 c0 -5 -5
-10 -11 -10 -5 0 -7 5 -4 10 3 6 8 10 11 10 2 0 4 -4 4 -10z m67 -35 c0 -8 -3
-13 -5 -10 -3 3 -11 0 -18 -6 -7 -6 -18 -8 -24 -4 -14 9 -1 28 16 21 7 -3 16
-1 19 4 9 14 12 12 12 -5z m56 -30 c3 -6 -3 -11 -12 -11 -10 0 -18 5 -18 11 0
7 6 12 13 12 7 0 15 -5 17 -12z"/>
<path d="M3326 1058 c3 -5 10 -6 15 -3 13 9 11 12 -6 12 -8 0 -12 -4 -9 -9z"/>
<path d="M3390 1061 c0 -6 4 -13 10 -16 6 -3 7 1 4 9 -7 18 -14 21 -14 7z"/>
<path d="M3430 1047 c-12 -21 -12 -21 6 -7 10 8 20 15 22 16 2 1 -1 4 -5 7 -5
3 -15 -4 -23 -16z"/>
<path d="M5885 1020 c-3 -5 -12 -7 -21 -3 -9 3 -14 0 -12 -8 2 -8 -5 -14 -14
-14 -9 0 -20 -3 -23 -7 -4 -3 6 -4 22 -2 15 3 35 5 43 6 21 1 41 18 34 29 -7
12 -21 11 -29 -1z"/>
<path d="M3625 1009 c-3 -4 2 -6 10 -5 21 3 28 13 10 13 -9 0 -18 -4 -20 -8z"/>
<path d="M3680 996 c-12 -19 -12 -20 3 -8 13 11 17 10 24 -3 13 -23 81 -27 93
-6 6 10 9 12 10 3 0 -8 5 -10 12 -6 7 5 9 2 6 -7 -4 -11 3 -15 33 -15 21 0 36
3 33 7 -2 4 -1 9 3 12 5 2 3 2 -4 1 -7 -2 -15 1 -19 7 -3 6 -13 8 -21 5 -8 -3
-28 1 -45 10 -29 15 -30 15 -23 -8 6 -20 5 -21 -6 -8 -8 9 -23 23 -33 30 -18
14 -19 13 -13 -2 3 -10 1 -20 -5 -24 -6 -4 -8 -3 -5 2 3 6 -2 15 -12 21 -14 9
-20 7 -31 -11z m84 -14 c3 -5 -1 -9 -9 -9 -8 0 -12 4 -9 9 3 4 7 8 9 8 2 0 6
-4 9 -8z m100 -10 c3 -5 -1 -9 -9 -9 -8 0 -12 4 -9 9 3 4 7 8 9 8 2 0 6 -4 9
-8z"/>
<path d="M3943 995 c2 -5 10 -10 17 -10 7 0 15 5 17 10 2 6 -6 11 -17 11 -11
0 -19 -5 -17 -11z"/>
<path d="M5536 1003 c-7 -8 -11 -9 -37 -12 -5 0 -7 -6 -3 -12 4 -8 9 -7 16 2
7 11 8 9 4 -4 -3 -10 -6 -21 -6 -23 0 -3 -4 -3 -9 1 -5 3 -12 1 -15 -4 -9 -13
11 -24 27 -14 19 12 37 12 37 1 0 -6 6 -6 15 2 8 7 12 16 9 21 -3 5 1 9 8 9 7
0 4 6 -7 12 -11 6 -23 15 -26 20 -3 4 -9 5 -13 1z m23 -29 c4 3 8 -1 8 -9 0
-8 -4 -15 -9 -15 -4 0 -8 6 -8 13 0 8 -4 7 -10 -3 -11 -18 -13 -9 -3 16 4 11
8 13 11 6 2 -7 7 -10 11 -8z"/>
<path d="M5725 1002 c-5 -4 -11 -14 -12 -22 -2 -12 6 -16 32 -16 19 0 32 2 30
5 -3 2 0 10 7 18 9 11 7 12 -7 7 -14 -6 -16 -4 -11 7 4 8 -2 3 -15 -11 -21
-24 -21 -24 -15 -2 8 24 7 26 -9 14z"/>
<path d="M4097 989 c-17 -10 -15 -29 4 -29 6 0 8 4 4 9 -3 5 0 13 6 17 8 4 9
3 5 -4 -4 -7 -2 -12 3 -12 13 0 15 17 3 24 -4 2 -15 0 -25 -5z"/>
<path d="M4366 984 c-3 -9 -12 -14 -20 -11 -17 7 -36 -11 -36 -32 1 -14 2 -14
10 0 5 9 19 15 32 13 13 -1 27 -3 31 -3 5 -1 5 -6 1 -13 -5 -7 -3 -8 5 -4 7 5
20 1 29 -7 17 -14 51 -19 53 -8 0 3 2 21 3 38 2 32 2 33 -20 18 -20 -13 -25
-13 -38 1 -9 8 -16 12 -16 8 0 -3 -6 -1 -14 5 -11 9 -15 8 -20 -5z m36 -19
c11 0 50 -45 39 -45 -6 0 -15 9 -21 20 -6 11 -15 18 -19 15 -5 -2 -15 3 -22
12 -12 15 -12 16 1 8 8 -6 18 -10 22 -10z m51 -10 c-3 -9 -8 -14 -10 -11 -3 3
-2 9 2 15 9 16 15 13 8 -4z"/>
<path d="M5389 993 c-1 -5 -2 -21 -3 -37 -1 -23 -6 -30 -24 -31 -13 -1 -27 5
-32 14 -5 9 -10 11 -10 4 0 -6 4 -14 10 -18 16 -10 -1 -34 -22 -30 -16 4 -18
2 -8 -11 7 -8 14 -24 15 -37 4 -36 4 -37 17 -37 9 0 9 3 0 12 -17 17 -15 33 3
18 10 -9 15 -9 15 -1 0 6 -5 11 -11 11 -5 0 -8 4 -4 10 3 5 12 7 19 4 7 -3 16
1 19 9 6 17 -9 44 -20 34 -4 -5 -1 -12 6 -16 8 -5 9 -11 3 -15 -14 -8 -25 25
-13 37 7 7 17 5 30 -7 15 -14 17 -21 7 -41 -6 -13 -13 -22 -17 -20 -3 2 -6 -1
-6 -8 0 -7 -4 -21 -8 -32 -4 -11 2 -5 14 13 12 18 21 36 21 41 0 5 7 14 15 21
17 14 21 0 5 -16 -8 -8 -6 -15 5 -24 10 -8 15 -9 15 -1 0 6 -5 11 -11 11 -5 0
-8 4 -4 10 3 5 12 7 20 3 8 -3 15 0 15 7 0 6 -4 8 -10 5 -5 -3 -10 -2 -10 4 0
5 6 11 13 14 6 2 8 8 4 13 -4 5 -12 2 -17 -6 -6 -8 -10 -12 -11 -7 -2 10 -6
25 -9 35 -1 4 -2 10 -1 15 0 4 -4 7 -10 7 -6 0 -7 5 -2 13 11 18 12 37 2 37
-5 0 -10 -3 -10 -7z m18 -88 c0 -11 -4 -12 -14 -4 -7 6 -13 13 -13 15 0 2 6 4
13 4 8 0 14 -7 14 -15z m-67 -26 c0 -15 -18 -19 -23 -6 -3 8 1 14 9 14 8 0 14
-4 14 -8z"/>
<path d="M5420 1000 c-1 -3 -3 -19 -5 -37 -3 -38 21 -52 44 -26 9 10 12 14 7
10 -5 -4 -15 -2 -23 5 -11 9 -11 14 4 32 15 17 15 18 1 8 -13 -10 -17 -10 -21
0 -3 7 -6 11 -7 8z m21 -57 c13 -16 12 -17 -3 -4 -10 7 -18 15 -18 17 0 8 8 3
21 -13z"/>
<path d="M5654 985 c-12 -8 -23 -13 -25 -12 -3 1 -1 -2 3 -7 4 -6 15 -11 23
-12 14 -2 17 3 14 22 0 4 5 11 13 15 7 5 8 9 3 9 -6 0 -20 -7 -31 -15z"/>
<path d="M4226 968 c-18 -26 -10 -44 11 -26 10 8 11 14 4 16 -9 3 -9 7 0 18 6
8 9 14 6 14 -3 0 -13 -10 -21 -22z"/>
<path d="M4527 969 c-16 -22 -14 -44 4 -33 5 3 7 9 4 14 -3 5 0 12 6 16 8 4 9
3 5 -4 -4 -7 -2 -12 3 -12 13 0 14 10 2 29 -7 10 -12 8 -24 -10z"/>
<path d="M4759 983 c-1 -5 -2 -12 -4 -18 -1 -5 -3 -14 -3 -18 -1 -5 -14 1 -28
12 -29 23 -54 14 -54 -17 0 -13 -3 -12 -14 3 -14 19 -55 29 -57 13 -4 -28 -4
-34 6 -40 6 -5 5 -8 -4 -8 -8 0 -24 8 -35 18 -15 12 -17 13 -9 1 10 -12 10
-18 1 -27 -9 -9 -9 -12 -1 -12 6 0 14 6 16 13 4 9 6 9 6 -1 1 -10 6 -10 21 -2
11 6 20 8 20 4 0 -3 7 -1 15 6 8 7 15 9 15 5 0 -4 7 -2 15 5 11 10 19 10 27 2
6 -6 18 -8 27 -5 14 4 14 3 1 -6 -8 -5 -11 -13 -7 -18 9 -9 28 17 21 29 -5 7
12 12 19 6 5 -6 67 44 67 54 0 6 -9 3 -19 -6 -19 -18 -47 -14 -36 5 4 5 4 9 1
9 -3 0 -7 -3 -7 -7z m-40 -37 c9 -11 7 -13 -11 -11 -30 3 -30 3 -23 15 9 14
20 13 34 -4z m-77 -3 c-6 -2 -10 -9 -7 -13 3 -5 0 -12 -7 -16 -7 -4 -10 -4 -6
1 4 4 1 13 -8 19 -13 10 -10 12 13 13 15 1 22 -1 15 -4z"/>
<path d="M4874 982 c8 -13 -30 -36 -45 -27 -12 8 -41 -14 -34 -26 3 -4 12 -6
20 -3 8 4 12 11 8 17 -4 6 -1 7 7 2 10 -6 6 -14 -16 -32 -16 -13 -23 -23 -15
-21 15 3 90 73 92 85 0 4 -5 9 -12 12 -6 2 -9 -1 -5 -7z"/>
<path d="M5245 981 c-3 -6 1 -14 10 -17 14 -6 14 -8 -2 -19 -13 -10 -20 -10
-25 -2 -6 9 -8 8 -8 -1 0 -8 -5 -10 -12 -6 -10 5 -10 4 -1 -6 15 -16 53 -21
50 -6 -1 5 4 10 11 11 15 0 14 14 -3 38 -8 12 -15 15 -20 8z"/>
<path d="M5335 980 c3 -5 8 -10 11 -10 2 0 4 5 4 10 0 6 -5 10 -11 10 -5 0 -7
-4 -4 -10z"/>
<path d="M5132 958 c-9 -9 -9 -15 1 -27 7 -9 2 -8 -11 3 -12 11 -25 16 -29 13
-3 -4 -12 -2 -20 4 -10 9 -18 8 -33 -6 -18 -16 -22 -16 -37 -3 -12 9 -36 14
-68 13 -65 -3 -65 -3 -65 -16 0 -8 5 -7 15 1 13 11 14 10 10 -2 -3 -8 0 -15 7
-16 7 -1 27 -4 43 -6 72 -13 84 -14 82 -6 -1 4 3 9 8 10 6 1 17 6 26 11 11 6
21 4 28 -5 6 -7 21 -12 33 -11 17 1 23 9 25 28 2 31 1 31 -15 15z m-147 -28
c3 0 3 5 -1 12 -4 7 -3 8 5 4 6 -4 9 -11 6 -16 -3 -4 -2 -10 2 -13 5 -2 1 -2
-7 1 -8 2 -20 5 -27 5 -7 0 -14 6 -17 14 -4 10 -1 11 14 3 10 -5 21 -10 25
-10z"/>
<path d="M4103 953 c-7 -2 -13 -10 -13 -15 0 -6 3 -8 7 -5 3 4 13 1 22 -6 14
-10 14 -10 3 5 -10 13 -10 17 0 21 7 3 9 5 3 5 -5 0 -16 -2 -22 -5z"/>
<path d="M4180 945 c-7 -8 -17 -12 -24 -8 -6 3 -7 2 -3 -3 4 -4 19 -9 32 -10
17 0 23 4 22 18 -2 22 -10 23 -27 3z"/>
<path d="M5155 940 c3 -5 8 -10 11 -10 2 0 4 5 4 10 0 6 -5 10 -11 10 -5 0 -7
-4 -4 -10z"/>
<path d="M3896 874 c-4 -9 -4 -19 -1 -22 3 -3 5 0 5 7 0 8 8 10 23 5 12 -3 20
-5 17 -2 -34 27 -38 28 -44 12z"/>
<path d="M3855 860 c-3 -6 1 -7 9 -4 18 7 21 14 7 14 -6 0 -13 -4 -16 -10z"/>
<path d="M5641 856 c-8 -10 -9 -16 -1 -21 6 -4 9 -1 8 7 -2 7 5 12 14 12 10
-1 15 2 12 7 -8 13 -20 11 -33 -5z"/>
<path d="M4140 845 c-9 -10 -9 -15 -1 -15 6 0 11 5 11 11 0 5 5 7 10 4 6 -3
10 -1 10 4 0 16 -16 13 -30 -4z"/>
<path d="M4192 844 c-7 -8 -8 -14 -3 -14 10 0 25 19 20 25 -2 1 -10 -3 -17
-11z"/>
<path d="M5170 850 c0 -5 5 -10 11 -10 5 0 7 5 4 10 -3 6 -8 10 -11 10 -2 0
-4 -4 -4 -10z"/>
<path d="M4926 836 c5 -13 4 -17 -4 -12 -8 5 -10 2 -6 -9 4 -10 2 -15 -7 -13
-9 2 -14 -6 -14 -21 0 -19 5 -24 27 -25 14 -1 24 2 21 7 -3 5 -14 7 -24 4 -14
-4 -19 0 -19 15 0 10 4 17 9 13 16 -9 35 35 21 49 -8 8 -9 6 -4 -8z"/>
<path d="M4400 836 c0 -2 7 -7 16 -10 8 -3 12 -2 9 4 -6 10 -25 14 -25 6z"/>
<path d="M4533 816 c0 -18 3 -24 9 -18 7 7 7 16 0 28 -8 14 -9 13 -9 -10z"/>
<path d="M4555 827 c3 -7 15 -13 26 -14 24 -2 23 0 -8 16 -18 9 -22 9 -18 -2z"/>
<path d="M4834 825 c-12 -8 -25 -11 -30 -7 -5 4 -3 0 4 -9 13 -18 55 -18 58 0
1 6 0 7 -2 2 -3 -6 -12 -7 -21 -4 -12 5 -11 9 8 19 13 7 19 13 14 14 -6 0 -20
-7 -31 -15z"/>
<path d="M4021 814 c0 -11 3 -14 6 -6 3 7 2 16 -1 19 -3 4 -6 -2 -5 -13z"/>
<path d="M4090 820 c-8 -5 -10 -10 -5 -10 6 0 17 5 25 10 8 5 11 10 5 10 -5 0
-17 -5 -25 -10z"/>
<path d="M4150 820 c-13 -8 -12 -10 3 -10 9 0 17 5 17 10 0 12 -1 12 -20 0z"/>
<path d="M4290 823 c17 -8 11 -19 -10 -20 -13 -1 -18 2 -14 9 4 7 2 8 -5 4
-17 -11 -3 -26 22 -22 24 3 31 28 9 32 -7 1 -8 0 -2 -3z"/>
<path d="M4511 814 c0 -11 3 -14 6 -6 3 7 2 16 -1 19 -3 4 -6 -2 -5 -13z"/>
<path d="M4880 819 c0 -5 5 -7 10 -4 6 3 10 8 10 11 0 2 -4 4 -10 4 -5 0 -10
-5 -10 -11z"/>
<path d="M5145 820 c-3 -5 -12 -7 -20 -3 -8 3 -15 1 -15 -5 0 -6 8 -9 18 -7 9
1 25 -2 35 -7 12 -6 19 -5 23 7 3 8 11 12 17 8 6 -3 7 -1 3 5 -10 17 -26 15
-26 -3 0 -9 -6 -12 -16 -8 -13 5 -13 7 -2 14 9 6 9 9 1 9 -6 0 -14 -4 -18 -10z"/>
<path d="M5237 815 c3 -10 0 -15 -8 -13 -9 2 -14 -6 -14 -21 0 -19 5 -24 27
-25 14 -1 24 2 21 7 -3 5 -14 7 -24 4 -14 -4 -19 0 -19 14 0 10 5 18 12 17 6
-2 14 5 16 15 2 9 -1 17 -7 17 -6 0 -8 -7 -4 -15z"/>
<path d="M5397 815 c3 -10 1 -15 -8 -13 -7 2 -14 -6 -16 -17 -3 -18 -2 -18 5
-2 4 10 12 18 17 17 6 0 11 6 13 14 2 9 -1 16 -7 16 -6 0 -8 -7 -4 -15z"/>
<path d="M5471 814 c0 -11 3 -14 6 -6 3 7 2 16 -1 19 -3 4 -6 -2 -5 -13z"/>
<path d="M5270 811 c0 -10 19 -25 25 -20 1 2 -3 10 -11 17 -8 7 -14 8 -14 3z"/>
<path d="M5430 810 c0 -5 5 -10 10 -10 6 0 10 5 10 10 0 6 -4 10 -10 10 -5 0
-10 -4 -10 -10z"/>
<path d="M4055 800 c-3 -5 -1 -10 4 -10 6 0 11 5 11 10 0 6 -2 10 -4 10 -3 0
-8 -4 -11 -10z"/>
<path d="M4110 800 c0 -5 5 -10 10 -10 6 0 10 5 10 10 0 6 -4 10 -10 10 -5 0
-10 -4 -10 -10z"/>
<path d="M4179 808 c-5 -21 -3 -55 4 -51 5 3 7 14 4 24 -4 14 0 19 14 19 10 0
18 -5 17 -12 -2 -6 10 -13 27 -14 20 -2 25 0 16 5 -8 5 -20 7 -28 4 -8 -3 -13
0 -11 8 2 11 -40 28 -43 17z"/>
<path d="M4419 803 c-1 -4 -1 -12 0 -17 1 -5 -4 -6 -12 -3 -8 3 -20 1 -28 -4
-9 -5 -4 -7 16 -5 17 1 29 8 28 14 -2 7 6 12 17 12 11 0 19 -5 18 -11 -2 -6 4
-14 12 -16 12 -4 12 -3 2 5 -8 5 -12 13 -10 18 1 5 -7 10 -19 12 -13 2 -24 0
-24 -5z"/>
<path d="M4734 795 c-3 -8 -4 -20 -1 -27 3 -7 6 -2 6 11 1 21 3 22 19 10 15
-13 16 -12 3 4 -16 21 -20 21 -27 2z"/>
<path d="M5494 802 c3 -5 0 -13 -6 -15 -9 -4 -10 -6 -1 -6 17 -1 25 16 12 25
-7 4 -9 3 -5 -4z"/>
<path d="M4570 791 c0 -7 -4 -10 -9 -6 -6 3 -14 -3 -20 -12 -5 -10 -13 -17
-18 -15 -4 2 -8 -1 -9 -7 -2 -7 -1 -8 3 -1 2 5 9 8 14 4 5 -3 12 2 15 10 3 9
10 14 14 11 10 -6 24 14 16 22 -3 4 -6 1 -6 -6z"/>
<path d="M4140 786 c0 -2 7 -7 16 -10 8 -3 12 -2 9 4 -6 10 -25 14 -25 6z"/>
<path d="M4490 780 c0 -5 5 -10 10 -10 6 0 10 5 10 10 0 6 -4 10 -10 10 -5 0
-10 -4 -10 -10z"/>
<path d="M4931 785 c4 -3 19 -8 35 -11 16 -3 26 -2 23 1 -4 3 -19 8 -35 11
-16 3 -26 2 -23 -1z"/>
<path d="M5090 780 c0 -5 5 -10 10 -10 6 0 10 5 10 10 0 6 -4 10 -10 10 -5 0
-10 -4 -10 -10z"/>
<path d="M5130 780 c0 -5 5 -10 10 -10 6 0 10 5 10 10 0 6 -4 10 -10 10 -5 0
-10 -4 -10 -10z"/>
<path d="M5250 786 c0 -2 7 -7 16 -10 8 -3 12 -2 9 4 -6 10 -25 14 -25 6z"/>
<path d="M5400 775 c-19 -22 -8 -25 13 -3 9 10 13 18 8 18 -5 0 -14 -7 -21
-15z"/>
<path d="M5430 769 l-25 -20 25 12 c14 7 28 12 33 11 4 -1 7 3 7 8 0 15 -12
12 -40 -11z"/>
<path d="M4335 771 c-3 -5 0 -13 6 -17 7 -4 9 -3 5 4 -3 5 0 13 6 15 9 4 10 6
1 6 -6 1 -14 -3 -18 -8z"/>
<path d="M5055 771 c-3 -5 0 -13 6 -17 7 -4 9 -3 5 4 -3 5 0 13 6 15 9 4 10 6
1 6 -6 1 -14 -3 -18 -8z"/>
<path d="M5168 773 c6 -2 9 -10 6 -15 -4 -7 -2 -8 5 -4 13 9 5 26 -12 25 -9 0
-8 -2 1 -6z"/>
<path d="M4191 747 c-13 -21 -12 -21 5 -5 10 10 16 20 13 22 -3 3 -11 -5 -18
-17z"/>
<path d="M4430 760 c0 -5 5 -10 10 -10 6 0 10 5 10 10 0 6 -4 10 -10 10 -5 0
-10 -4 -10 -10z"/>
<path d="M4590 760 c0 -5 7 -6 17 -3 12 5 14 3 8 -7 -5 -9 -4 -11 4 -6 6 4 9
12 6 17 -8 12 -35 12 -35 -1z"/>
<path d="M4710 762 c0 -6 7 -17 15 -25 8 -8 11 -18 7 -22 -4 -5 -1 -5 6 -1 11
6 10 12 -5 29 -10 12 -19 24 -20 26 -2 2 -3 -1 -3 -7z"/>
<path d="M4750 761 c0 -6 7 -8 15 -5 10 4 13 0 10 -15 -2 -11 1 -24 7 -27 6
-4 8 -3 5 3 -4 6 0 13 8 17 8 3 15 11 14 18 0 10 -2 10 -6 1 -6 -16 -24 -17
-20 -1 1 6 -6 14 -15 16 -10 2 -18 -1 -18 -7z"/>
<path d="M4870 761 c0 -10 29 -36 34 -30 1 2 -6 12 -16 22 -10 9 -18 13 -18 8z"/>
<path d="M5030 761 c0 -6 4 -13 10 -16 6 -3 7 1 4 9 -7 18 -14 21 -14 7z"/>
<path d="M4233 753 c-7 -2 -13 -12 -12 -21 0 -11 2 -12 6 -4 2 6 8 10 12 8 4
-3 8 1 8 9 0 8 -1 15 -1 14 -1 0 -7 -3 -13 -6z"/>
<path d="M4270 751 c0 -6 4 -13 10 -16 6 -3 7 1 4 9 -7 18 -14 21 -14 7z"/>
<path d="M4390 756 c0 -3 14 -12 30 -21 17 -9 30 -13 30 -11 0 3 -13 12 -30
21 -16 9 -30 13 -30 11z"/>
<path d="M4961 744 c0 -11 3 -14 6 -6 3 7 2 16 -1 19 -3 4 -6 -2 -5 -13z"/>
<path d="M5002 744 c10 -10 20 -15 24 -12 3 4 -5 12 -18 18 -22 12 -22 12 -6
-6z"/>
<path d="M5277 747 c-3 -8 1 -14 8 -14 7 0 11 6 8 14 -3 7 -6 13 -8 13 -2 0
-5 -6 -8 -13z"/>
<path d="M5371 744 c0 -11 3 -14 6 -6 3 7 2 16 -1 19 -3 4 -6 -2 -5 -13z"/>
<path d="M4320 740 c8 -5 20 -10 25 -10 6 0 3 5 -5 10 -8 5 -19 10 -25 10 -5
0 -3 -5 5 -10z"/>
<path d="M4468 743 c6 -2 10 -9 7 -14 -4 -5 1 -6 10 -2 13 5 14 7 3 14 -7 5
-17 8 -23 8 -5 0 -4 -3 3 -6z"/>
<path d="M4680 736 c0 -20 17 -29 26 -15 5 8 3 9 -6 4 -10 -6 -12 -4 -7 8 3
10 2 17 -3 17 -6 0 -10 -6 -10 -14z"/>
<path d="M5200 740 c8 -5 20 -10 25 -10 6 0 3 5 -5 10 -8 5 -19 10 -25 10 -5
0 -3 -5 5 -10z"/>
<path d="M5325 740 c3 -5 8 -10 11 -10 2 0 4 5 4 10 0 6 -5 10 -11 10 -5 0 -7
-4 -4 -10z"/>
<path d="M5108 733 c6 -2 18 -2 25 0 6 3 1 5 -13 5 -14 0 -19 -2 -12 -5z"/>
<path d="M4256 722 c-2 -4 -2 -13 2 -19 5 -8 15 -5 32 8 21 17 22 19 3 10 -27
-14 -36 -14 -28 -1 3 6 4 10 1 10 -3 0 -7 -4 -10 -8z"/>
<path d="M4356 714 c-3 -9 -2 -22 2 -31 6 -10 9 -5 9 16 0 35 -2 38 -11 15z"/>
<path d="M4391 707 c-13 -21 -12 -21 5 -5 10 10 16 20 13 22 -3 3 -11 -5 -18
-17z"/>
<path d="M4510 721 c0 -10 29 -36 34 -30 1 2 -6 12 -16 22 -10 9 -18 13 -18 8z"/>
<path d="M4550 725 c0 -5 5 -17 10 -25 5 -8 10 -10 10 -5 0 6 -5 17 -10 25 -5
8 -10 11 -10 5z"/>
<path d="M4570 726 c0 -3 9 -10 20 -16 11 -6 20 -8 20 -6 0 3 -9 10 -20 16
-11 6 -20 8 -20 6z"/>
<path d="M4621 710 c7 -14 12 -28 11 -32 -1 -5 3 -8 8 -8 15 0 12 12 -11 40
l-20 25 12 -25z"/>
<path d="M4870 720 c0 -5 5 -10 11 -10 5 0 7 5 4 10 -3 6 -8 10 -11 10 -2 0
-4 -4 -4 -10z"/>
<path d="M4910 720 c-13 -8 -12 -10 3 -10 9 0 17 5 17 10 0 12 -1 12 -20 0z"/>
<path d="M4970 712 c-8 -15 -11 -15 -20 -2 -6 9 -10 10 -10 3 0 -19 22 -27 34
-12 6 8 19 13 29 11 24 -5 22 4 -3 11 -12 3 -24 -1 -30 -11z"/>
<path d="M5028 708 c-10 -10 -14 -18 -9 -18 10 0 36 29 30 34 -2 1 -12 -6 -21
-16z"/>
<path d="M5150 721 c0 -10 29 -36 34 -30 1 2 -6 12 -16 22 -10 9 -18 13 -18 8z"/>
<path d="M5190 725 c0 -5 5 -17 10 -25 5 -8 10 -10 10 -5 0 6 -5 17 -10 25 -5
8 -10 11 -10 5z"/>
<path d="M5260 710 c6 -11 13 -20 16 -20 2 0 0 9 -6 20 -6 11 -13 20 -16 20
-2 0 0 -9 6 -20z"/>
<path d="M5310 720 c0 -5 5 -10 11 -10 5 0 7 5 4 10 -3 6 -8 10 -11 10 -2 0
-4 -4 -4 -10z"/>
<path d="M4315 709 c-11 -16 -1 -19 13 -3 7 8 8 14 3 14 -5 0 -13 -5 -16 -11z"/>
<path d="M4847 707 c-3 -8 1 -14 8 -14 7 0 11 6 8 14 -3 7 -6 13 -8 13 -2 0
-5 -6 -8 -13z"/>
<path d="M5220 716 c0 -2 7 -7 16 -10 8 -3 12 -2 9 4 -6 10 -25 14 -25 6z"/>
<path d="M5291 704 c0 -11 3 -14 6 -6 3 7 2 16 -1 19 -3 4 -6 -2 -5 -13z"/>
<path d="M4420 701 c0 -9 30 -24 36 -18 2 1 -6 8 -16 15 -11 7 -20 8 -20 3z"/>
<path d="M4710 700 c0 -5 5 -10 11 -10 5 0 7 5 4 10 -3 6 -8 10 -11 10 -2 0
-4 -4 -4 -10z"/>
<path d="M4746 702 c-2 -4 4 -8 14 -8 10 0 16 4 14 8 -3 4 -9 8 -14 8 -5 0
-11 -4 -14 -8z"/>
<path d="M4795 700 c-3 -5 -3 -10 2 -10 4 0 1 -5 -7 -11 -10 -7 -11 -9 -2 -7
8 2 13 7 12 12 -1 5 4 13 12 17 9 6 9 9 1 9 -6 0 -15 -4 -18 -10z"/>
<path d="M5056 702 c-3 -5 1 -9 9 -9 8 0 12 4 9 9 -3 4 -7 8 -9 8 -2 0 -6 -4
-9 -8z"/>
<path d="M5106 695 c7 -18 32 -27 40 -13 4 7 3 8 -4 4 -7 -4 -12 -3 -12 2 0 6
-7 12 -14 15 -10 4 -13 1 -10 -8z"/>
<path d="M4477 693 c-4 -6 0 -13 8 -17 8 -3 17 0 21 6 4 6 3 8 -4 4 -5 -3 -12
-1 -14 6 -3 8 -6 9 -11 1z"/>
<path d="M4286 682 c-3 -5 1 -9 9 -9 8 0 12 4 9 9 -3 4 -7 8 -9 8 -2 0 -6 -4
-9 -8z"/>
<path d="M4683 675 c-3 -9 -3 -19 1 -22 3 -4 6 1 6 11 0 10 5 14 12 10 7 -4 8
-3 4 4 -10 16 -15 15 -23 -3z"/>
<path d="M4934 682 c3 -5 0 -13 -6 -15 -9 -4 -10 -6 -1 -6 17 -1 25 16 12 25
-7 4 -9 3 -5 -4z"/>
<path d="M4975 681 c-9 -15 15 -25 28 -12 9 9 7 10 -7 5 -13 -5 -17 -4 -12 4
4 7 5 12 2 12 -3 0 -7 -4 -11 -9z"/>
<path d="M4381 664 c0 -11 3 -14 6 -6 3 7 2 16 -1 19 -3 4 -6 -2 -5 -13z"/>
<path d="M4506 665 c-11 -8 -16 -15 -10 -15 5 0 18 7 28 15 11 8 16 15 10 15
-5 0 -18 -7 -28 -15z"/>
<path d="M4591 664 c0 -11 3 -14 6 -6 3 7 2 16 -1 19 -3 4 -6 -2 -5 -13z"/>
<path d="M4750 676 c0 -2 8 -10 18 -17 15 -13 16 -12 3 4 -13 16 -21 21 -21
13z"/>
<path d="M4875 670 c-3 -5 -3 -10 2 -10 4 0 2 -4 -5 -9 -11 -6 -9 -10 7 -14
17 -4 19 -2 11 13 -5 9 -6 20 -3 24 3 3 4 6 0 6 -3 0 -9 -4 -12 -10z"/>
<path d="M5076 665 c23 -17 34 -19 34 -4 0 5 -4 8 -9 4 -5 -3 -12 -1 -16 5 -3
5 -11 10 -18 10 -6 0 -2 -7 9 -15z"/>
<path d="M5155 670 c-3 -6 1 -7 9 -4 18 7 21 14 7 14 -6 0 -13 -4 -16 -10z"/>
<path d="M5226 663 c-6 -14 -5 -15 5 -6 7 7 10 15 7 18 -3 3 -9 -2 -12 -12z"/>
<path d="M4400 661 c0 -5 7 -12 16 -15 14 -5 15 -4 4 9 -14 17 -20 19 -20 6z"/>
<path d="M4445 660 c-3 -6 1 -7 9 -4 18 7 21 14 7 14 -6 0 -13 -4 -16 -10z"/>
<path d="M4810 658 c0 -6 3 -8 7 -5 3 4 13 1 22 -6 14 -11 14 -10 2 6 -15 20
-31 22 -31 5z"/>
<path d="M4555 651 c-6 -11 13 -26 22 -17 4 3 1 6 -6 6 -7 0 -9 5 -6 10 3 6 4
10 1 10 -3 0 -7 -4 -11 -9z"/>
<path d="M4633 645 c0 -8 4 -15 9 -15 4 0 8 4 8 9 0 6 -4 12 -8 15 -5 3 -9 -1
-9 -9z"/>
<path d="M5027 646 c-4 -10 1 -12 14 -9 23 6 24 9 5 16 -8 3 -17 0 -19 -7z"/>
<path d="M4747 629 c6 -22 20 -26 20 -4 0 8 -6 16 -13 19 -7 3 -10 -2 -7 -15z"/>
<path d="M4935 643 c3 -3 0 -12 -5 -18 -7 -9 -6 -14 3 -18 14 -5 17 28 4 38
-4 3 -5 2 -2 -2z"/>
<path d="M5147 629 c6 -23 9 -24 16 -5 3 8 0 17 -7 19 -10 4 -12 -1 -9 -14z"/>
<path d="M4453 625 c0 -7 6 -11 14 -8 7 3 13 6 13 8 0 2 -6 5 -13 8 -8 3 -14
-1 -14 -8z"/>
<path d="M4977 616 c-4 -10 -1 -13 8 -9 8 3 12 9 9 14 -7 12 -11 11 -17 -5z"/>
<path d="M4465 600 c-3 -6 1 -7 9 -4 18 7 21 14 7 14 -6 0 -13 -4 -16 -10z"/>
<path d="M4580 606 c0 -2 8 -10 18 -17 15 -13 16 -12 3 4 -13 16 -21 21 -21
13z"/>
<path d="M4685 599 c-4 -6 -14 -8 -22 -4 -13 4 -14 3 -3 -10 7 -9 13 -14 14
-13 1 2 8 11 15 21 7 9 11 17 8 17 -3 0 -9 -5 -12 -11z"/>
<path d="M4710 606 c0 -2 7 -7 16 -10 8 -3 12 -2 9 4 -6 10 -25 14 -25 6z"/>
<path d="M4486 585 c-11 -8 -15 -15 -9 -15 6 0 16 7 23 15 16 19 11 19 -14 0z"/>
<path d="M4617 581 c-4 -17 -3 -21 5 -13 5 5 8 16 6 23 -3 8 -7 3 -11 -10z"/>
<path d="M4776 587 c3 -10 9 -15 12 -12 3 3 0 11 -7 18 -10 9 -11 8 -5 -6z"/>
<path d="M4894 589 c-3 -6 -2 -15 3 -20 5 -5 9 -1 9 11 0 23 -2 24 -12 9z"/>
<path d="M5023 584 c9 -11 14 -23 11 -26 -3 -3 -1 -8 4 -12 18 -11 8 25 -12
41 -21 18 -21 18 -3 -3z"/>
<path d="M4696 573 c-6 -14 -5 -15 5 -6 7 7 10 15 7 18 -3 3 -9 -2 -12 -12z"/>
<path d="M4807 577 c3 -4 8 -6 11 -3 3 3 15 -2 26 -11 15 -14 18 -14 8 -2 -6
9 -10 18 -7 20 2 3 -6 5 -20 5 -13 0 -21 -4 -18 -9z"/>
<path d="M4970 578 c0 -4 4 -8 9 -8 6 0 12 4 15 8 3 5 -1 9 -9 9 -8 0 -15 -4
-15 -9z"/>
<path d="M4509 563 c-13 -16 -12 -17 4 -4 9 7 17 15 17 17 0 8 -8 3 -21 -13z"/>
<path d="M4749 563 c-13 -16 -12 -17 4 -4 9 7 17 15 17 17 0 8 -8 3 -21 -13z"/>
<path d="M4639 553 c-13 -16 -12 -17 4 -4 16 13 21 21 13 21 -2 0 -10 -8 -17
-17z"/>
<path d="M4996 553 c-6 -14 -5 -15 5 -6 7 7 10 15 7 18 -3 3 -9 -2 -12 -12z"/>
<path d="M5060 566 c0 -2 8 -10 18 -17 15 -13 16 -12 3 4 -13 16 -21 21 -21
13z"/>
<path d="M4526 545 c-18 -14 -18 -14 1 -12 11 0 20 7 20 14 0 7 -1 13 -1 13
-1 0 -9 -7 -20 -15z"/>
<path d="M4719 558 c-5 -18 -6 -38 -1 -34 7 8 12 36 6 36 -2 0 -4 -1 -5 -2z"/>
<path d="M4771 547 c-8 -10 -7 -14 2 -14 8 0 14 6 14 14 0 7 -1 13 -2 13 -2 0
-8 -6 -14 -13z"/>
<path d="M4813 547 c0 -7 9 -14 20 -14 11 -1 18 -1 16 0 -2 2 -11 8 -20 15
-12 9 -16 9 -16 -1z"/>
<path d="M4873 545 c0 -8 4 -12 9 -9 5 3 6 10 3 15 -9 13 -12 11 -12 -6z"/>
<path d="M4673 533 c0 -11 7 -20 14 -20 10 0 10 4 1 16 -7 9 -13 18 -15 20 -1
2 -1 -5 0 -16z"/>
<path d="M4909 523 c-13 -16 -12 -17 4 -4 16 13 21 21 13 21 -2 0 -10 -8 -17
-17z"/>
<path d="M4455 520 c3 -5 8 -10 11 -10 2 0 4 5 4 10 0 6 -5 10 -11 10 -5 0 -7
-4 -4 -10z"/>
<path d="M4590 518 c0 -4 4 -8 9 -8 6 0 12 4 15 8 3 5 -1 9 -9 9 -8 0 -15 -4
-15 -9z"/>
<path d="M4989 517 c6 -8 7 -18 3 -22 -4 -5 -1 -5 6 -1 10 6 10 11 1 22 -6 8
-14 14 -16 14 -3 0 0 -6 6 -13z"/>
<path d="M4490 501 c0 -6 4 -12 8 -15 5 -3 9 1 9 9 0 8 -4 15 -9 15 -4 0 -8
-4 -8 -9z"/>
<path d="M4640 500 c-12 -7 -10 -9 7 -7 12 0 19 5 17 9 -6 10 -6 10 -24 -2z"/>
<path d="M4947 499 c7 -7 15 -10 18 -7 3 3 -2 9 -12 12 -14 6 -15 5 -6 -5z"/>
<path d="M5025 499 c-3 -4 2 -6 10 -5 21 3 28 13 10 13 -9 0 -18 -4 -20 -8z"/>
<path d="M4706 478 c3 -5 10 -6 15 -3 13 9 11 12 -6 12 -8 0 -12 -4 -9 -9z"/>
<path d="M4745 480 c-3 -6 1 -7 9 -4 18 7 21 14 7 14 -6 0 -13 -4 -16 -10z"/>
<path d="M4493 451 c0 -11 5 -18 9 -15 4 3 5 11 1 19 -7 21 -12 19 -10 -4z"/>
<path d="M4786 462 c-2 -4 4 -8 14 -8 10 0 16 4 14 8 -3 4 -9 8 -14 8 -5 0
-11 -4 -14 -8z"/>
<path d="M4575 440 c3 -5 8 -10 11 -10 2 0 4 5 4 10 0 6 -5 10 -11 10 -5 0 -7
-4 -4 -10z"/>
<path d="M4610 439 c0 -5 5 -7 10 -4 6 3 10 8 10 11 0 2 -4 4 -10 4 -5 0 -10
-5 -10 -11z"/>
<path d="M4859 428 c-5 -18 -6 -38 -1 -34 7 8 12 36 6 36 -2 0 -4 -1 -5 -2z"/>
<path d="M4579 408 c-5 -18 -6 -38 -1 -34 7 8 12 36 6 36 -2 0 -4 -1 -5 -2z"/>
<path d="M4690 405 c0 -7 30 -13 34 -7 3 4 -4 9 -15 9 -10 1 -19 0 -19 -2z"/>
<path d="M4751 373 c7 -12 15 -20 18 -17 3 2 -3 12 -13 22 -17 16 -18 16 -5
-5z"/>
<path d="M4875 340 c-3 -5 -1 -10 4 -10 6 0 11 5 11 10 0 6 -2 10 -4 10 -3 0
-8 -4 -11 -10z"/>
<path d="M4896 253 c-6 -14 -5 -15 5 -6 7 7 10 15 7 18 -3 3 -9 -2 -12 -12z"/>
</g>
</svg>
